<svg xmlns="http://www.w3.org/2000/svg" width="818.6" height="884.2" fill="none"><g clip-path="url(#a)" transform="translate(-320 -71)"><path fill="#EBE6C8" d="M763 955c132 0 240-7 240-17 0-9-108-16-240-16-133 0-241 7-241 16 0 10 108 17 241 17z" style="fill:#ebe6c8;fill-opacity:.4"/><path fill="#667466" d="M1037 375v-25a12 12 0 0 1 23 0v25"/><path fill="#70888d" d="M1101 414h-52c-3 0-5 3-5 6v87c0 3 2 6 5 6h52c4 0 6-3 6-6v-87c0-3-2-6-6-6z"/><path fill="#2a3c31" d="M1101 410h-52c-5 0-9 4-9 10v87c0 5 4 10 9 10h52c6 0 10-5 10-10v-87c0-6-4-10-10-10zm2 97-2 2h-52l-1-2v-87l1-2h52l2 2z"/><path fill="#fff" d="m1070 432 2 3 1 4-1 4-3 3-4 1h-5v10h-5v-26h10l5 1zm-3 10 1-3-1-2-2-1h-5v7h5l2-1zM1091 431h5v26h-5v-17l-4 6-1 1h-2v-1l-4-6v17h-5v-26h4l1 1 5 8 6-8v-1zM1062 490h12v5h-19v-5a93 93 0 0 0 9-9l4-6-1-3-3-1-3 1-1 3v1h-5v-2l1-4 3-3h5l5 1c2 0 3 1 3 3l2 4-1 3-3 4-3 3-4 4v1h-1zM1096 486l-1 4c0 2-1 3-3 4l-5 1-6-1-3-4-1-2 1-1h5v1h1l1 2 2 1a3 3 0 0 0 3-3v-4l-1-2h-4l-2 2h-6v-17h18v5h-12v6l5-1 5 1 3 4v4z"/><path fill="#2a3c31" d="M1093 549h-35a4 4 0 1 1 0-8h35a4 4 0 1 1 0 8zM1086 567h-21a4 4 0 1 1 0-8h21a4 4 0 1 1 0 8z"/><path fill="#a0bd50" d="M601 709c-9 91 67 149 149 149s150-45 192-124c88-170 38-423 38-423-19-101-79-160-161-160s-136 55-159 160c0 0-10 52-4 134 5 82-36 189-36 189s-15 42-19 75z"/><path fill="#a0bd50" d="M830 151a55 55 0 0 1 23-46c5-4 15-8 16-16 0-7-5-12-11-13-5-1-12 1-18 3-7 3-12 7-17 11a82 82 0 0 0-25 62"/><path fill="#508333" d="m816 150-4 2 18-1a55 55 0 0 1 23-46c5-4 15-8 16-16l-3-9c-20 7-50 25-50 70z"/><path fill="#80a73c" d="M702 851c-2 11 0 29 4 41 2 11 6 17 8 27 1 7-3 15-10 16-14 5-77 13-98-2-9-8 3-20 10-25 10-8 26-13 38-13l10 2 15 4c2 0 3 0 2-2-8-16-11-40-8-59"/><path fill="#508333" d="m696 855-19-8c-1 11 0 22 3 32 5 3 12 5 19 6l-3-30zM967 589a5 5 0 1 1 5-9l14 9 3-20-18-10a5 5 0 1 1 5-9l9 5c3-30 4-62 4-96-1-83-14-146-14-147-9-48-28-88-55-115-27-26-60-40-98-41 44 13 80 68 96 142 11 46 17 95 17 146 0 152-51 286-128 359a127 127 0 0 1-173 0l2 2c27 30 70 48 114 48 32 0 63-7 90-21l-2-22a5 5 0 0 1 10-1l1 18 1 5 18-11-1-5-1-17a5 5 0 1 1 10 0l1 9c22-18 42-42 57-71-3-5-10-15-11-27 0-10 4-19 12-28 11-11 23-15 33-15 7-22 12-44 16-67l-17-11z"/><path fill="#508333" d="M944 729c8-17 15-34 21-52-7 1-15 4-23 12-8 9-11 19-7 29l1 3 5-8a5 5 0 0 1 8 6c-4 4-5 8-5 10z"/><path fill="#80a73c" d="M679 400h1v5c0 98-19 189-50 260a296 296 0 0 0-11 115c4 8 9 16 15 23a127 127 0 0 0 173 0c77-73 128-207 128-359 0-51-6-100-17-146-16-74-52-129-96-142a146 146 0 0 0-39 4c-67 36-106 130-104 240Z"/><path fill="#667162" d="m530 691-46-145-18 6 45 144a10 10 0 0 0 19-5z"/><path fill="#2a3c31" d="M495 566a100 100 0 1 0-26 8l38 124a14 14 0 0 0 26-9l-38-123Zm-111-70a71 71 0 1 1 136-42 71 71 0 0 1-136 42zm141 200-3 3c-3 1-6-1-7-4l-39-123a107 107 0 0 0 11-3l39 123-1 4z"/><path fill="#667162" d="M538 448a90 90 0 1 0-172 54 90 90 0 0 0 172-54zm-15 64a79 79 0 0 1-108 34 80 80 0 1 1 108-34z"/><path fill="#80a73c" d="M616 645c-45 26-91 19-91 19l-10-29c-2 2-6 5-10 6l-3 35c-21 10-17-11-17-11-24 0-14-26-14-26s-18-10-8-26c11-15 30-6 30-6s13-21 34-8c14 10 17 31 17 31s24 13 57-14c32-26 38-43 38-43"/><path fill="#204822" d="M804 528c11-6 22-14 30-25 2-4 1-6 0-10-1-3 3-4 5-4 6 0 11 3 14 7 1 2 2 4 1 6s-5 1-8 3l-4 5-7 9c-8 10-19 18-32 23-21 7-55 9-70-9-3-5-2-8 4-7l17 8c16 4 34 1 50-6zM879 334c-4 4-10 0-14-3l-11-6-15-2h-9c-3-1-3-5-2-8 5-13 29-8 39-2 6 4 17 15 12 21zM728 502c-20-15-13-47 13-49 9 1 2 5-2 8-16 11-15 29 4 37l13 3 6 3c1 3-4 4-6 4-10 1-20-1-28-6zM685 334c-3-2-3-7-1-10 1-4 4-7 7-9l12-5c7-2 20-1 24 5 2 3 2 9-2 10h-11c-5 0-9 1-14 3l-12 5-3 1v-1z"/><path fill="#fff" d="M847 457c17 0 30-20 30-44s-13-44-30-44-30 20-30 44 13 44 30 44z"/><path fill="#234924" d="M854 444c10 0 17-12 17-27s-7-27-17-27c-9 0-17 12-17 27s8 27 17 27z"/><path fill="#fff" d="M861 410a5 5 0 1 0 0-11 5 5 0 0 0 0 11z"/><path fill="#234924" d="M817 413c0-24 13-44 30-44s30 20 30 44v2l2-12c0-23-14-41-32-41s-32 18-32 41l2 12v-2z"/><path fill="#fff" d="M714 452c17-2 28-22 25-45-2-24-17-41-33-39-17 1-28 22-25 45 2 23 17 40 33 39z"/><path fill="#234924" d="M720 439c9-1 15-14 14-28-2-14-10-25-19-24s-15 13-14 27c2 15 10 25 19 25z"/><path fill="#fff" d="M722 405a5 5 0 1 0 0-10 5 5 0 0 0 0 10z"/><path fill="#234924" d="M681 413c-3-23 8-43 25-45 16-2 31 16 33 39v2-12c-2-22-17-38-34-36s-29 21-26 42l2 12v-2z"/><path fill="#4f7338" d="M878 279a5 5 0 1 0 0-10 5 5 0 0 0 0 10zM888 197a5 5 0 1 0 0-10 5 5 0 0 0 0 10zM810 252a5 5 0 1 0 0-10 5 5 0 0 0 0 10zM790 205a5 5 0 1 0 0-10 5 5 0 0 0 0 10zM850 228c4-1 7-7 6-13-1-7-4-13-8-12-4 0-6 6-5 13 0 7 4 12 7 12zM933 264c3-2 4-8 1-15-3-6-8-10-12-8-3 1-3 8 0 14s8 10 11 9zM749 238c3-6 2-13-1-14-4-2-9 2-11 9-3 6-3 12 1 14 3 1 8-3 11-9zM683 527c2-4 0-8-4-9-3-1-7 1-9 5-1 4 1 8 4 10 4 1 8-2 9-6zM690 599c2-4 1-8-2-9-2-1-6 2-7 6s0 8 2 9c3 1 6-2 7-6zM897 552c0 7-3 13-6 13-4 0-7-6-7-13s3-13 7-13c3 0 6 6 6 13zM943 493c0 7-3 13-7 13-3 0-6-6-6-13s3-13 6-13c4 0 7 6 7 13zM969 440c0 5-3 8-7 8-3 0-6-3-6-8s3-8 6-8c4 0 7 3 7 8zM953 327c0 5-3 9-6 9-4 0-7-4-7-9 0-4 3-8 7-8 3 0 6 4 6 8zM951 396c4-1 6-6 4-12-1-6-5-10-8-9s-5 6-4 12c1 5 5 9 8 9zM936 632c4 0 7-4 7-9s-3-9-7-9c-3 0-6 4-6 9s3 9 6 9zM859 614c2-7 1-14-3-15-3-1-7 4-9 11s-1 14 3 14c3 1 7-4 9-10zM904 730c3-7 3-14 0-16s-9 3-12 10c-4 7-4 14 0 16 3 2 9-3 12-10zM744 629c1-6 0-12-3-13-3 0-6 4-8 10s-1 11 2 12 7-4 9-9zM666 667c3-9 2-18-2-19s-9 6-12 16c-2 9-1 18 3 19s9-6 11-16zM753 729c2-6 0-11-2-12-3-1-7 4-9 10-1 6 0 11 3 12s6-3 8-10zM677 786c3-1 4-6 2-13-1-6-5-10-8-9-2 0-4 6-2 12 1 6 5 10 8 10zM759 802c5-5 7-11 5-14-3-2-9-1-14 4s-7 11-5 14c3 3 9 1 14-4zM713 279a5 5 0 1 0 0-10 5 5 0 0 0 0 10zM873 665a5 5 0 1 0 0-10 5 5 0 0 0 0 10zM835 688c1-4-1-8-3-8-3-1-6 2-7 6s0 7 3 8c2 1 5-2 7-6zM862 783c1-5 0-9-3-10s-6 2-7 7c-2 4 0 9 3 9 2 1 6-2 7-6zM794 837c3-2 4-6 3-8-2-3-6-3-9-1s-4 6-2 8c2 3 5 3 8 1zM805 770a5 5 0 1 0 0-10 5 5 0 0 0 0 10zM642 738a5 5 0 1 0 0-10 5 5 0 0 0 0 10z"/><path fill="#80a73c" d="M898 919c-24-44-27-120-27-120l-28 11c4 77 25 99 26 100-20-21-45 3-45 3s-24 22-9 29c16 7 103 10 83-23z"/><path fill="#667162" d="M381 268a9 9 0 1 0 0-18 9 9 0 0 0 0 18zM397 352a22 22 0 1 0 0-45 22 22 0 0 0 0 45zM500 314a24 24 0 1 0 0-48 24 24 0 0 0 0 48zM551 365a16 16 0 1 0 0-31 16 16 0 0 0 0 31zM432 256a3 3 0 1 0 0-7 3 3 0 0 0 0 7zM494 235a3 3 0 1 0 0-6 3 3 0 0 0 0 6zM404 290a3 3 0 1 0 0-6 3 3 0 0 0 0 6zM377 303a3 3 0 1 0 0-6 3 3 0 0 0 0 6zM340 294a4 4 0 1 0 0-9 4 4 0 0 0 0 9zM383 364a4 4 0 1 0 0-9 4 4 0 0 0 0 9zM423 311a4 4 0 1 0 0-8 4 4 0 0 0 0 8zM324 412a4 4 0 1 0 0-8 4 4 0 0 0 0 8zM360 397a4 4 0 1 0 0-8 4 4 0 0 0 0 8zM440 297a4 4 0 1 0 0-8 4 4 0 0 0 0 8zM416 364a4 4 0 1 0 0-9 4 4 0 0 0 0 9zM332 322a7 7 0 1 0 0-13 7 7 0 0 0 0 13zM465 265a7 7 0 1 0 0-13 7 7 0 0 0 0 13zM532 260a7 7 0 1 0 0-13 7 7 0 0 0 0 13zM587 365a7 7 0 1 0 0-13 7 7 0 0 0 0 13zM582 457a7 7 0 1 0 0-13 7 7 0 0 0 0 13zM492 470a7 7 0 1 0 0-13 7 7 0 0 0 0 13zM432 441a7 7 0 1 0 0-14 7 7 0 0 0 0 14zM433 482a12 12 0 1 0 0-24 12 12 0 0 0 0 24zM474 503a17 17 0 1 0 0-34 17 17 0 0 0 0 34zM348 371a9 9 0 1 0 0-17 9 9 0 0 0 0 17zM562 283a4 4 0 1 0 0-8 4 4 0 0 0 0 8zM467 325a6 6 0 1 0 0-12 6 6 0 0 0 0 12zM567 385a4 4 0 1 0 0-8 4 4 0 0 0 0 8zM576 505a4 4 0 1 0 0-9 4 4 0 0 0 0 9zM470 440a4 4 0 1 0 0-9 4 4 0 0 0 0 9zM500 502a4 4 0 1 0 0-9 4 4 0 0 0 0 9zM474 522a4 4 0 1 0 0-8 4 4 0 0 0 0 8zM359 333a3 3 0 1 0 0-7 3 3 0 0 0 0 7zM460 358a3 3 0 1 0 0-6 3 3 0 0 0 0 6zM521 326a3 3 0 1 0 0-7 3 3 0 0 0 0 7zM538 297a3 3 0 1 0 0-7 3 3 0 0 0 0 7zM570 331a3 3 0 1 0 0-7 3 3 0 0 0 0 7zM567 418a3 3 0 1 0 0-6 3 3 0 0 0 0 6zM413 501a3 3 0 1 0 0-7 3 3 0 0 0 0 7zM443 523a3 3 0 1 0 0-7 3 3 0 0 0 0 7zM451 454a3 3 0 1 0 0-7 3 3 0 0 0 0 7zM406 467a3 3 0 1 0 0-7 3 3 0 0 0 0 7zM447 500a3 3 0 1 0 0-7 3 3 0 0 0 0 7zM535 376a3 3 0 1 0 0-7 3 3 0 0 0 0 7zM519 355a3 3 0 1 0 0-7 3 3 0 0 0 0 7zM492 347a3 3 0 1 0 0-7 3 3 0 0 0 0 7zM433 337a3 3 0 1 0 0-6 3 3 0 0 0 0 6zM336 444a3 3 0 1 0 0-7 3 3 0 0 0 0 7z"/><path fill="#2a3c31" d="M1112 371h-47v-21c0-7-4-13-10-16v-89a6 6 0 1 0-13 0v89c-6 3-10 9-10 16v21h-38v8h118c10 0 18 9 18 19v179c0 10-8 18-18 18h-69l7 8h62c14 0 26-12 26-26V398c0-15-12-27-26-27zm-57 0h-13v-21a7 7 0 0 1 13 0z"/><path fill="#d0cfb9" d="M999 459c1 35-1 69-4 102l21 13 2 1V400c0-11 9-21 21-21h-45c3 23 4 50 5 80z"/><path fill="#fff" d="M1039 379c-12 0-21 10-21 21v175l8 6V400c0-7 6-13 13-13h73v-8z"/><path fill="#80a73c" d="M1013 578c-13-9-27-17-39-23l-5 29s57 35 57 51c0 15-38 44-38 44s-25-19-49 7c-25 26 2 50 2 50s8 18 28 17c19-1 22-16 20-22 20-6 15-30 15-30 19-15 43-29 52-51 11-32-19-57-43-72z"/><path fill="#234924" d="M1051 605c-7-10-19-21-35-31l-21-13c3-33 5-67 4-102-1-84-14-148-14-149-10-50-30-92-58-120-26-25-57-40-92-43a50 50 0 0 1 20-38h1l4-3c5-3 13-8 14-17 0-8-6-16-15-18-6-1-12 0-21 3-6 3-13 7-19 13a86 86 0 0 0-26 61c-31 5-58 18-79 40-28 28-47 69-59 122-1 3-10 54-4 136 2 41-8 90-16 123l-1 2c-1 2-8 18-36 41-25 20-43 17-49 15-2-7-6-23-19-32h-1c-7-5-14-6-21-5-8 2-14 8-17 11-9-3-23-3-32 10-4 5-5 11-4 16 2 7 7 12 10 14-1 5-2 14 2 21 3 4 7 7 13 7 0 4 1 9 5 12 2 2 5 3 8 3s7-1 11-4a5 5 0 1 0-4-9c-5 3-8 3-9 2l-1-3c6-1 10-4 14-7 5-6 6-14 6-19l3-1 8 25 3 1 17 1c16 0 41-3 67-15-5 15-10 36-12 54-4 39 7 75 33 103 11 12 24 23 39 31-2 16 0 35 6 51a149 149 0 0 0-20-4c-13 0-29 5-41 14-4 3-15 13-16 22 0 5 2 8 5 11h1c10 8 29 10 45 10a227 227 0 0 0 57-7c4-1 8-3 11-7s4-10 3-15v-1l-4-12-5-14c-2-10-4-23-4-33a207 207 0 0 0 135-15c4 25 9 43 14 53-5 0-11 0-18 3-9 3-15 9-16 10-3 3-17 17-16 28 1 3 3 7 8 9a124 124 0 0 0 44 5c16 0 37-3 45-13 3-3 7-10 1-21-10-18-18-44-23-75l-2-22c25-19 46-44 63-75 5 6 13 13 27 13h1c12 0 19-6 22-11 3-4 4-9 4-12l8-7c7-8 7-19 6-24l8-6c18-13 36-27 43-46v-1c6-15 3-31-9-46zM826 94c5-5 10-8 16-10 6-3 12-4 15-3 4 1 7 4 7 7 0 4-5 7-10 10l-4 3a61 61 0 0 0-25 45 176 176 0 0 0-22 1c1-22 10-41 23-53zM465 625c-1-3 0-6 2-9 6-8 14-7 19-6l-2 10c-1 5 0 9 1 13l-1-1c-1-2-4-2-7 0l-5 2c-2-2-6-5-7-9zm31 31c-2 3-6 4-11 4s-8-1-9-4c-3-3-2-9-1-13l9-3c1-2 2-4 1-6 2 5 5 8 10 10l5 2c0 3-1 7-4 10zm33 3-8-23 5-9a5 5 0 0 0-9-4c-1 3-5 10-11 12h-7c-10-5-3-23-2-25 2-3 12-16 27-7 13 9 16 28 16 28v3l2 1c1 0 27 13 63-15l21-20-11 32-3 9c-36 21-73 19-83 18zm180 261c1 2 0 5-1 7-2 2-3 3-5 3h-1c-15 5-75 12-93-1l-2-2c1-4 5-10 12-15 10-7 24-12 35-12l9 2a161 161 0 0 1 15 4c3 1 6 0 7-2 1-1 2-3 1-7-7-14-10-33-9-50l19 8c0 11 2 27 5 38l5 16 3 11zm342-272c-7 17-24 30-40 42l-10 8-3 1 1 4s2 12-4 19c-4 5-11 7-21 6a5 5 0 1 0-1 10 66 66 0 0 0 11 0l-2 4c-2 4-7 6-13 6-17 1-24-14-24-14v-1c-1-2-2-6 4-14 1-2 1-5-1-7-3-2-6-1-7 1l-5 8-1-3c-4-10-1-20 7-29 21-22 42-7 43-6l3 2 3-2c6-5 40-31 40-48 0-5-3-15-31-35l-28-20a5 5 0 1 0-5 9l13 8c-5 25-10 49-17 71-9 0-19 5-28 14-8 9-12 18-12 28 1 12 8 22 11 27-15 29-35 53-57 71l-1-9a5 5 0 1 0-10 0l1 17 1 11c3 26 10 66 26 95 4 6 2 9 1 10-5 5-19 9-38 9-18 1-34-2-40-4l-2-2c0-4 7-13 13-18v-1c1 0 24-23 41-6l-7-24c-4-10-9-25-11-48l-2-11-1-18c0-2-2-4-5-4s-5 2-5 5l2 22c-27 14-58 21-90 21-44 0-87-18-114-48-23-26-34-59-30-95 4-32 18-72 18-74 2-6 42-110 37-191-6-79 3-130 3-133 24-103 76-156 155-156 39 0 74 14 101 41s46 67 55 115c0 1 13 64 14 147 0 34-1 66-4 96l-9-5a5 5 0 1 0-5 9c15 8 28 15 39 23 35 23 49 45 41 66zm-57-40c26 19 27 26 27 27 0 8-19 26-33 38l-15-5c7-20 12-42 16-64l5 4z"/><path fill="#234924" d="M1051 605c-7-10-19-21-35-31l-21-13c3-33 5-67 4-102-1-84-14-148-14-149-10-50-30-92-58-120-26-25-57-40-92-43a50 50 0 0 1 20-38h1l4-3c5-3 13-8 14-17 0-8-6-16-15-18-6-1-12 0-21 3-6 3-13 7-19 13a86 86 0 0 0-26 61c-31 5-58 18-79 40-28 28-47 69-59 122-1 3-10 54-4 136 2 41-8 90-16 123l-1 2c-1 2-8 18-36 41-25 20-43 17-49 15-2-7-6-23-19-32h-1c-7-5-14-6-21-5-8 2-14 8-17 11-9-3-23-3-32 10-4 5-5 11-4 16 2 7 7 12 10 14-1 5-2 14 2 21 3 4 7 7 13 7 0 4 1 9 5 12 2 2 5 3 8 3s7-1 11-4a5 5 0 1 0-4-9c-5 3-8 3-9 2l-1-3c6-1 10-4 14-7 5-6 6-14 6-19l3-1 8 25 3 1 17 1c16 0 41-3 67-15-5 15-10 36-12 54-4 39 7 75 33 103 11 12 24 23 39 31-2 16 0 35 6 51a149 149 0 0 0-20-4c-13 0-29 5-41 14-4 3-15 13-16 22 0 5 2 8 5 11h1c10 8 29 10 45 10a227 227 0 0 0 57-7c4-1 8-3 11-7s4-10 3-15v-1l-4-12-5-14c-2-10-4-23-4-33a207 207 0 0 0 135-15c4 25 9 43 14 53-5 0-11 0-18 3-9 3-15 9-16 10-3 3-17 17-16 28 1 3 3 7 8 9a124 124 0 0 0 44 5c16 0 37-3 45-13 3-3 7-10 1-21-10-18-18-44-23-75l-2-22c25-19 46-44 63-75 5 6 13 13 27 13h1c12 0 19-6 22-11 3-4 4-9 4-12l8-7c7-8 7-19 6-24l8-6c18-13 36-27 43-46v-1c6-15 3-31-9-46zM826 94c5-5 10-8 16-10 6-3 12-4 15-3 4 1 7 4 7 7 0 4-5 7-10 10l-4 3a61 61 0 0 0-25 45 176 176 0 0 0-22 1c1-22 10-41 23-53zM465 625c-1-3 0-6 2-9 6-8 14-7 19-6l-2 10c-1 5 0 9 1 13l-1-1c-1-2-4-2-7 0l-5 2c-2-2-6-5-7-9zm31 31c-2 3-6 4-11 4s-8-1-9-4c-3-3-2-9-1-13l9-3c1-2 2-4 1-6 2 5 5 8 10 10l5 2c0 3-1 7-4 10zm33 3-8-23 5-9a5 5 0 0 0-9-4c-1 3-5 10-11 12h-7c-10-5-3-23-2-25 2-3 12-16 27-7 13 9 16 28 16 28v3l2 1c1 0 27 13 63-15l21-20-11 32-3 9c-36 21-73 19-83 18zm180 261c1 2 0 5-1 7-2 2-3 3-5 3h-1c-15 5-75 12-93-1l-2-2c1-4 5-10 12-15 10-7 24-12 35-12l9 2a161 161 0 0 1 15 4c3 1 6 0 7-2 1-1 2-3 1-7-7-14-10-33-9-50l19 8c0 11 2 27 5 38l5 16 3 11zm342-272c-7 17-24 30-40 42l-10 8-3 1 1 4s2 12-4 19c-4 5-11 7-21 6a5 5 0 1 0-1 10 66 66 0 0 0 11 0l-2 4c-2 4-7 6-13 6-17 1-24-14-24-14v-1c-1-2-2-6 4-14 1-2 1-5-1-7-3-2-6-1-7 1l-5 8-1-3c-4-10-1-20 7-29 21-22 42-7 43-6l3 2 3-2c6-5 40-31 40-48 0-5-3-15-31-35l-28-20a5 5 0 1 0-5 9s14 8 27 19c26 19 27 26 27 27 0 8-19 26-33 38-12-7-34-11-53 9-8 9-12 18-12 28 1 12 8 22 11 27-15 29-35 53-57 71l-1-9a5 5 0 1 0-10 0l1 17 1 11c3 26 10 66 26 95 4 6 2 9 1 10-5 5-19 9-38 9-18 1-34-2-40-4l-2-2c0-4 7-13 13-18v-1c1 0 24-23 41-6l-7-24c-4-10-9-25-11-48l-2-11-1-18c0-2-2-4-5-4s-5 2-5 5l2 22c-27 14-58 21-90 21-44 0-87-18-114-48-23-26-34-59-30-95 4-32 18-72 18-74 2-6 42-110 37-191-6-79 3-130 3-133 24-103 76-156 155-156 39 0 74 14 101 41s46 67 55 115c0 1 13 64 14 147 0 34-1 66-4 96l-9-5a5 5 0 1 0-5 9c15 8 28 15 39 23 35 23 49 45 41 66z"/><path d="m720 521-20-16-1-91v-90l1-3c2-4 6-8 11-10l3-2h82l3 2c4 1 8 5 10 9l1 3v188l-2 3c-2 4-5 7-9 9l-39 1h-36zm49-25c2-2 2-5 0-7l-13-1c-13 0-13 0-14 2-2 2-2 3 0 5s2 2 14 2l13-1zm8-19v-6l-2-1h-39l-1 1c-2 2-2 4-1 6l22 1 21-1zm10-32 3-3 1-49 1-47-2-2c-3-5-3-5-34-5-32 0-32 0-35 5l-1 2v46l1 49c1 2 3 4 6 5a468 468 0 0 0 60-1z" style="opacity:.727941;fill:#ebe6c8;fill-opacity:1;fill-rule:evenodd;stroke-width:.732383;stroke-linecap:round;stroke-linejoin:bevel;paint-order:markers stroke fill" transform="translate(320 71)"/></g><defs><clipPath id="a"><path fill="#fff" d="M0 0h1536v1024H0z"/></clipPath></defs></svg>