<svg xmlns="http://www.w3.org/2000/svg" width="1536" height="438" fill="none"><g clip-path="url(#a)" transform="translate(0 -585.2)"><path fill="#fafae6" d="M1536 585.2H0v438.48h1536z"/><path fill="#ebe6c8" d="M1525.68 810.4v-78.02h-54.21v68.65h-31.61v-35.26h-54.21v73.65h-18.28l-4.97-169.54h-14.97l-4.97 169.54h-21.19v-50.87h-71.69v37.16h-12.37v-84.26H1133.8v102.68h-40.04V807.3h-59.52v63.67h-29.73v-29.03h-59.52v19.98h-63.14v11.54H592.92v-35.89h-47.8v24.35h-20.88v-44.01h-50.9v17.17h-33.71v25.3h-22.86V801.4h-23.64v-19.04h-28.7v19.04h-18.69v25.59h-17.12V724.93h-55.44v126.71h-28.02v-37.05h-50.32v22.03h-14.15v-63.79h-28.3v50.06h-15.56v-14.67h-21.89v14.67h-14.07v13.73H85.48v20.01H66.24v-91.44H20.51v59.92H0v91.99h1536V810.4Z"/><path fill="#dcdcbe" d="M216.8 917.1a23.4 23.4 0 0 0-26.04-20.03 23.39 23.39 0 0 0-30.69-9.83 23.41 23.41 0 0 0-35.2 11.26 23.28 23.28 0 0 0-12.83-3.84 23.39 23.39 0 0 0-22.96 18.95 31.7 31.7 0 0 0-59.34 3.47H216.8Zm161.19 0a31.42 31.42 0 0 0-47.03-17.12 37.42 37.42 0 0 0-63.52-2.87 31.42 31.42 0 0 0-46.26 20h156.8zm186.8 0a31.42 31.42 0 0 0-54.17-13.5 22.9 22.9 0 0 0-10.06-2.31c-6.97 0-13.22 3.1-17.44 8a48.76 48.76 0 0 0-78.97 7.81zm574.89 0a34.82 34.82 0 0 0-30.75-14.88 48.73 48.73 0 0 0-39.54-20.21 48.68 48.68 0 0 0-34.51 14.29 34.82 34.82 0 0 0-33.54 14.54 34.88 34.88 0 0 0-62.2-4.24l-.56-.01a34.76 34.76 0 0 0-24.94 10.51h226.03zm393.68-36.74a53.69 53.69 0 0 0-92.47 28.94 34.88 34.88 0 0 0-59.36 7.5 48.17 48.17 0 0 0-89.21-12.73 48.54 48.54 0 0 0-26.95-8.12c-9.96 0-19.24 3-26.96 8.13a48.8 48.8 0 0 0-80.55 13.03h375.5v-36.73z"/><path fill="#ebe6c8" d="M1149.49 998.88c51.26 0 92.8-2.87 92.8-6.41 0-3.55-41.54-6.42-92.8-6.42s-92.82 2.87-92.82 6.42c0 3.54 41.56 6.41 92.82 6.41z"/><path fill="#667466" d="M1255.39 774.93v-9.9a4.58 4.58 0 0 1 9.16 0v9.9"/><path fill="#70888d" d="M1280.4 789.94h-20.17a2.2 2.2 0 0 0-2.19 2.19v33.64c0 1.21.98 2.2 2.2 2.2h20.15a2.2 2.2 0 0 0 2.2-2.2v-33.64a2.2 2.2 0 0 0-2.2-2.2z"/><path fill="#2a3c31" d="M1280.39 788.39h-20.16a3.74 3.74 0 0 0-3.74 3.74v33.64a3.74 3.74 0 0 0 3.74 3.74h20.16a3.74 3.74 0 0 0 3.74-3.74v-33.64a3.74 3.74 0 0 0-3.74-3.74zm.65 37.38a.65.65 0 0 1-.65.65h-20.16a.65.65 0 0 1-.65-.65v-33.64c0-.35.3-.65.65-.65h20.16c.35 0 .65.3.65.65z"/><path fill="#fff" d="M1268.05 796.93c.47.25.83.6 1.09 1.07.25.47.38 1 .38 1.6 0 .6-.13 1.1-.4 1.55a2.73 2.73 0 0 1-1.11 1.04c-.48.25-1.04.37-1.66.37h-2c-.04 0-.06.03-.06.07v3.58a.16.16 0 0 1-.05.12.16.16 0 0 1-.12.05h-1.64a.16.16 0 0 1-.12-.05.15.15 0 0 1-.05-.12v-9.49a.16.16 0 0 1 .05-.12.18.18 0 0 1 .12-.05h3.96c.61 0 1.15.13 1.62.38zm-.89 3.68c.27-.25.4-.57.4-.97s-.13-.75-.4-1c-.26-.25-.6-.38-1.04-.38h-1.77c-.05 0-.07.02-.07.07v2.58c0 .05.02.07.07.07h1.78c.42 0 .77-.12 1.03-.37zm9.36-4.05h1.64a.16.16 0 0 1 .12.05c.03.03.05.08.05.12v9.48a.16.16 0 0 1-.05.12.15.15 0 0 1-.12.05h-1.64a.16.16 0 0 1-.12-.05.15.15 0 0 1-.05-.12v-6.18c0-.04-.02-.06-.03-.06-.02 0-.04.02-.06.05l-1.48 2.33a.22.22 0 0 1-.2.1h-.83a.22.22 0 0 1-.2-.1l-1.48-2.33c-.02-.03-.04-.04-.06-.04-.02 0-.02.03-.02.06v6.17a.16.16 0 0 1-.05.12.16.16 0 0 1-.12.05h-1.64a.16.16 0 0 1-.12-.05.15.15 0 0 1-.05-.12v-9.48a.16.16 0 0 1 .05-.12.17.17 0 0 1 .12-.05h1.64c.08 0 .15.04.2.11l2.1 3.27c.02.06.05.06.08 0l2.12-3.27a.22.22 0 0 1 .2-.1zm-11.2 22.76c0 .02.03.03.06.03h4.22c.05 0 .1.02.13.06a.17.17 0 0 1 .06.13v1.51c0 .05-.02.1-.06.13a.17.17 0 0 1-.13.06h-7.02a.18.18 0 0 1-.13-.06.17.17 0 0 1-.05-.13v-1.43c0-.1.03-.17.09-.24a35.74 35.74 0 0 0 1.56-1.63l1-1.1c.3-.35.59-.67.89-.99.95-1.05 1.42-1.83 1.42-2.34 0-.36-.13-.66-.39-.9-.26-.23-.6-.35-1.01-.35-.41 0-.75.12-1.02.36-.26.23-.39.54-.39.92v.4a.18.18 0 0 1-.19.18h-1.84a.18.18 0 0 1-.13-.06.17.17 0 0 1-.06-.13v-.73a2.7 2.7 0 0 1 .53-1.5c.32-.43.75-.75 1.3-.98a4.57 4.57 0 0 1 1.8-.35c.73 0 1.37.14 1.92.42.55.27.97.65 1.27 1.11a2.98 2.98 0 0 1 .11 2.91c-.22.45-.54.95-.98 1.48-.32.4-.67.8-1.05 1.2-.37.4-.93.97-1.67 1.72l-.23.23c-.02.02-.02.04-.01.06zm13-1.57a3.95 3.95 0 0 1-.24 1.43 3.1 3.1 0 0 1-1.27 1.59c-.6.39-1.3.58-2.12.58-.81 0-1.48-.19-2.08-.57a3.08 3.08 0 0 1-1.27-1.55 4.67 4.67 0 0 1-.24-.86v-.03c0-.12.06-.17.2-.17h1.88c.1 0 .17.06.2.17a.61.61 0 0 0 .05.15.47.47 0 0 1 .04.11 1.22 1.22 0 0 0 1.21.85c.29 0 .54-.08.76-.24a1.36 1.36 0 0 0 .48-.65 2.35 2.35 0 0 0 .02-1.63 1.06 1.06 0 0 0-.44-.62 1.35 1.35 0 0 0-.76-.22c-.3 0-.56.07-.81.2s-.42.31-.5.53c-.03.1-.1.15-.2.15h-1.92a.18.18 0 0 1-.13-.05.17.17 0 0 1-.06-.13v-6.29a.18.18 0 0 1 .19-.18h6.44a.2.2 0 0 1 .14.05.18.18 0 0 1 .05.13v1.52a.18.18 0 0 1-.19.18h-4.35c-.05 0-.08.03-.08.08l-.02 2.3c0 .08.03.1.1.05.46-.3 1-.45 1.62-.45.73 0 1.36.19 1.91.56a3 3 0 0 1 1.16 1.52c.16.5.24 1 .24 1.48z"/><path fill="#2a3c31" d="M1277.19 841.93h-13.75a1.54 1.54 0 1 1 0-3.09h13.75a1.54 1.54 0 1 1 0 3.1zm-2.77 7.07h-8.21a1.54 1.54 0 1 1 0-3.1h8.2a1.54 1.54 0 1 1 0 3.1z"/><path fill="#a0bd50" d="M1087.12 904.01c-3.7 34.86 25.72 57.45 57.44 57.45 31.73 0 58.16-17.34 74.12-48.1 34-65.52 14.81-163.16 14.81-163.16-7.53-39.06-30.5-61.9-62.23-61.9-31.73 0-52.54 21.13-61.62 61.9 0 0-3.6 20.04-1.54 51.73 2.05 31.62-13.87 72.98-13.87 72.98s-5.74 16.18-7.11 29.1z"/><path fill="#a0bd50" d="M1175.34 688.44a21.4 21.4 0 0 1 3.18-11.9 21.24 21.24 0 0 1 5.72-6.06c2.2-1.63 6.13-3.26 6.28-6.3.15-2.38-1.88-4.46-4.1-4.88-2.2-.36-4.85.37-6.98 1.18-2.63 1-4.87 2.62-6.77 4.42-5.66 4.85-9.56 13.27-9.71 23.93"/><path fill="#508333" d="m1169.98 688.02-1.55.63 6.91-.21c-.15-3.94.92-8.32 3.18-11.9a21.24 21.24 0 0 1 5.72-6.06c2.2-1.63 6.13-3.26 6.28-6.3.07-1.2-.4-2.32-1.18-3.2-7.69 2.7-19.36 9.64-19.36 27.04z"/><path fill="#80a73c" d="M1125.89 958.78c-.52 4.06.31 11.03 1.53 15.78.92 4.2 2.32 6.66 3.24 10.26.56 3.07-1.07 5.95-4 6.43-5.21 1.73-29.76 5.04-37.87-.7-3.5-3.07 1.41-7.78 4.12-9.83 3.88-2.98 9.81-5.14 14.6-4.91 1.34.05 2.65.27 3.95.58 2.22.54 4.71 1.41 5.84 1.66.54.12 1.1.15.76-.6-3.2-6.45-4.45-15.56-3.03-22.99"/><path fill="#508333" d="M1123.84 960.14a64.7 64.7 0 0 1-7.27-2.83c-.41 3.98-.1 8.35.82 12.37 2.08.95 4.62 1.65 7.43 2a54.43 54.43 0 0 1-.98-11.54zm104.42-102.82a1.93 1.93 0 0 1-.62-2.66 1.93 1.93 0 0 1 2.65-.62c.15.1 2.41 1.5 5.45 3.59.4-2.67.77-5.34 1.08-8a198.01 198.01 0 0 0-6.7-3.67 1.93 1.93 0 1 1 1.79-3.43l3.53 1.9a319.3 319.3 0 0 0 1.47-37.11c-.53-32.07-5.26-56.5-5.3-56.75-3.63-18.78-11.07-34.2-21.52-44.6-10.1-10.03-23.1-15.45-37.68-15.72 17.18 5.07 31.02 26.25 37.28 54.91a247.91 247.91 0 0 1 6.34 56.27c0 58.85-19.8 110.36-49.39 138.7v-.1a49.2 49.2 0 0 1-33.47 13.09 49.2 49.2 0 0 1-33.48-13.08l.9 1.03c10.4 11.55 26.83 18.45 43.97 18.45a76.54 76.54 0 0 0 34.73-8.03 153.34 153.34 0 0 1-.66-8.66 1.93 1.93 0 0 1 3.86-.18c.11 2.43.28 4.72.48 6.86l.23 2.05a78.67 78.67 0 0 0 6.91-4.37l-.21-2.18c-.3-3.56-.38-5.88-.4-6.21a1.93 1.93 0 0 1 1.88-2 1.93 1.93 0 0 1 1.99 1.88c0 .03.04 1.31.2 3.47 8.67-7.15 16.19-16.43 22.3-27.66-1.5-1.77-4.13-5.49-4.29-10.19-.12-3.81 1.38-7.41 4.47-10.7 4.32-4.6 8.96-5.96 12.95-5.82a206.6 206.6 0 0 0 6.06-25.93 159.37 159.37 0 0 0-6.8-4.53z"/><path fill="#508333" d="M1219.58 911.59a150.8 150.8 0 0 0 8.18-19.92c-2.68.15-5.8 1.3-8.9 4.59-3.28 3.48-4.2 7.26-2.74 11.22.11.32.24.62.38.92.4-.91.95-1.9 1.75-2.94a1.93 1.93 0 0 1 2.7-.38 1.93 1.93 0 0 1 .38 2.7c-1.26 1.66-1.67 2.93-1.75 3.8z"/><path fill="#80a73c" d="M1117.32 784.63h.05v1.68c0 38.12-7.21 73.14-19.27 100.7h.06a114.32 114.32 0 0 0-4.82 33.26c0 3.79.19 7.5.53 11.15a46.45 46.45 0 0 0 5.81 8.63 49.21 49.21 0 0 0 33.48 13.08 49.2 49.2 0 0 0 33.48-13.09v.09c29.6-28.34 49.38-79.84 49.38-138.69 0-19.79-2.25-38.74-6.34-56.27-6.26-28.66-20.1-49.84-37.28-54.9a56.43 56.43 0 0 0-1.14-.02c-4.89 0-9.5.52-13.85 1.54-25.87 13.76-41.1 50-40.1 92.85Z"/><path fill="#667162" d="m1059.46 896.72-17.5-55.84-7.11 2.23 17.5 55.84a3.73 3.73 0 0 0 7.1-2.23z"/><path fill="#2a3c31" d="M1045.95 848.43a38.63 38.63 0 1 0-10.06 3.15l14.98 47.83a5.28 5.28 0 0 0 6.61 3.46 5.28 5.28 0 0 0 3.45-6.6l-14.98-47.84Zm-42.76-26.7a27.55 27.55 0 1 1 52.58-16.48 27.55 27.55 0 0 1-52.58 16.48zm54.65 77.12c-.27.51-.73.9-1.28 1.07a2.18 2.18 0 0 1-2.73-1.43l-14.9-47.55a42.36 42.36 0 0 0 4.16-1.3l14.9 47.54a2.2 2.2 0 0 1-.15 1.67z"/><path fill="#667162" d="M1062.64 803.1a34.8 34.8 0 0 0-43.55-22.77 34.8 34.8 0 0 0-22.77 43.55 34.5 34.5 0 0 0 17.05 20.4 34.6 34.6 0 0 0 26.5 2.37 34.5 34.5 0 0 0 20.4-17.06 34.51 34.51 0 0 0 2.36-26.5zm-5.79 24.7a30.66 30.66 0 0 1-18.14 15.16 30.69 30.69 0 0 1-23.54-2.1 30.67 30.67 0 0 1-15.16-18.13 30.92 30.92 0 0 1 20.24-38.71 31 31 0 0 1 9.27-1.43c4.92 0 9.8 1.18 14.28 3.53a30.66 30.66 0 0 1 15.16 18.13 30.69 30.69 0 0 1-2.1 23.55z"/><path fill="#80a73c" d="M1092.86 879.05c-17.4 10.27-35.17 7.4-35.17 7.4l-3.78-11.3a7.16 7.16 0 0 1-3.79 2.31l-1.23 13.62c-8.1 3.73-6.62-4.25-6.62-4.25-9.24-.06-5.46-10-5.46-10s-7.13-3.86-3.01-9.9c4.1-6.04 11.43-2.3 11.43-2.3s5.14-8.3 13.1-3.33c5.66 3.94 6.86 12.16 6.86 12.16s9.2 4.84 22.02-5.65c12.14-9.96 14.47-16.54 14.47-16.54"/><path fill="#204822" d="M1165.35 833.87c4.52-2.12 8.75-5.33 11.55-9.6 1.07-1.58.46-2.5-.01-3.89-.3-1.22 1.28-1.56 2.23-1.55a6.62 6.62 0 0 1 5.26 2.8c.41.64.83 1.47.56 2.22-.39.92-2.14.3-3.3 1.23a6.95 6.95 0 0 0-1.44 1.75 33.77 33.77 0 0 1-2.63 3.62 28.27 28.27 0 0 1-12.54 8.7c-7.97 2.72-21.2 3.71-27.1-3.45-1.12-1.6-.49-2.99 1.62-2.36 2.19.75 4.25 2.27 6.54 2.84 6.27 1.69 13.38.37 19.19-2.27l.07-.03zm29.13-74.95c-1.54 1.65-3.88-.12-5.35-1.12a13.77 13.77 0 0 0-4.46-2.21 13.2 13.2 0 0 0-5.76-.72c-1.03.08-2.26.24-3.23-.1-1.2-.37-1.33-1.99-.96-3.06 1.82-5.25 11.37-3 15.26-.79 2.25 1.4 6.24 5.6 4.54 7.95zm-58.3 64.85c-7.75-5.73-5.05-18.02 4.8-18.68 3.44.1 1.04 1.91-.47 2.96-6.4 4.24-5.98 11.23 1.42 14.13 1.54.63 3.26.95 4.86 1.38.86.26 2.08.56 2.45 1.2.28.95-1.67 1.3-2.43 1.47-3.62.54-7.62-.3-10.56-2.41l-.06-.05zm-16.78-64.99c-1.12-.7-.96-2.63-.47-3.73a6.64 6.64 0 0 1 3.05-3.41c1.36-.85 2.78-1.7 4.34-2.04 2.86-.57 7.92-.45 9.52 2.13.75 1.13.48 3.35-.94 3.85-1.18.48-2.9.05-4.31 0a15.3 15.3 0 0 0-5.18.89c-1.68.5-3.15 1.74-4.77 2.3-.4.12-.83.19-1.2.03l-.05-.02z"/><path fill="#fff" d="M1182.1 806.46c6.48 0 11.73-7.59 11.73-16.95s-5.25-16.96-11.74-16.96-11.73 7.6-11.73 16.96 5.25 16.95 11.73 16.95z"/><path fill="#234924" d="M1184.94 801.42c3.62 0 6.56-4.66 6.56-10.4 0-5.75-2.94-10.4-6.56-10.4-3.62 0-6.56 4.65-6.56 10.4 0 5.74 2.94 10.4 6.56 10.4z"/><path fill="#fff" d="M1187.43 788.18a2.04 2.04 0 1 0 0-4.08 2.04 2.04 0 0 0 0 4.08z"/><path fill="#234924" d="M1170.35 789.5c0-9.35 5.26-16.95 11.74-16.95s11.74 7.6 11.74 16.96c0 .27 0 .54-.02.81.36-1.47.55-3.05.55-4.67 0-8.71-5.5-15.78-12.27-15.78-6.78 0-12.28 7.07-12.28 15.78 0 1.62.2 3.2.55 4.67l-.01-.81z"/><path fill="#fff" d="M1130.87 804.46c6.2-.66 10.46-8.46 9.5-17.41-.94-8.96-6.74-15.68-12.94-15.02-6.2.66-10.46 8.45-9.51 17.4.95 8.96 6.75 15.69 12.95 15.03z"/><path fill="#234924" d="M1133.1 799.35c3.45-.37 5.79-5.12 5.2-10.62s-3.86-9.65-7.33-9.29c-3.46.37-5.8 5.13-5.2 10.62.58 5.5 3.86 9.66 7.32 9.3z"/><path fill="#fff" d="M1133.9 786.46a1.96 1.96 0 1 0 0-3.93 1.96 1.96 0 0 0 0 3.93z"/><path fill="#234924" d="M1117.91 789.45c-.95-8.96 3.3-16.75 9.51-17.41 6.2-.66 12 6.06 12.96 15.02l.07.79c.18-1.45.21-2.98.05-4.53-.89-8.34-6.87-14.54-13.35-13.85-6.48.7-11.02 8.01-10.14 16.34.17 1.56.51 3.04 1 4.42l-.1-.78z"/><path fill="#4f7338" d="M1193.97 737.63a1.94 1.94 0 1 0 0-3.87 1.94 1.94 0 0 0 0 3.87zm3.87-31.75a1.94 1.94 0 1 0 0-3.87 1.94 1.94 0 0 0 0 3.88zm-30.06 21.51a1.94 1.94 0 1 0 0-3.87 1.94 1.94 0 0 0 0 3.87zm-7.8-18.21a1.94 1.94 0 1 0 0-3.87 1.94 1.94 0 0 0 0 3.87zm23.41 8.72c1.44-.14 2.4-2.41 2.15-5.09-.25-2.67-1.62-4.73-3.05-4.6-1.43.13-2.39 2.41-2.14 5.08.25 2.68 1.61 4.74 3.04 4.6zm31.94 13.87c1.3-.61 1.43-3.08.29-5.51-1.15-2.43-3.13-3.9-4.43-3.3-1.3.62-1.43 3.09-.28 5.52 1.14 2.43 3.12 3.9 4.42 3.29zm-71.14-9.86c1.06-2.47.85-4.93-.47-5.5-1.32-.57-3.25.97-4.31 3.43-1.07 2.47-.86 4.93.46 5.5 1.32.57 3.25-.97 4.32-3.43zm-25.4 111.75c.53-1.58-.15-3.22-1.51-3.68-1.37-.45-2.9.46-3.43 2.04-.52 1.57.16 3.22 1.52 3.67 1.37.46 2.9-.45 3.43-2.03zm2.79 27.65c.53-1.57.14-3.12-.86-3.45-1-.34-2.23.67-2.75 2.25-.53 1.58-.15 3.13.85 3.46 1 .33 2.23-.68 2.76-2.26zm79.82-18.09c0 2.77-1.1 5.01-2.47 5.01s-2.48-2.24-2.48-5c0-2.78 1.11-5.02 2.48-5.02 1.36 0 2.47 2.24 2.47 5.01zm17.7-22.74c0 2.77-1.12 5.01-2.49 5.01-1.36 0-2.47-2.24-2.47-5s1.1-5.02 2.47-5.02 2.48 2.25 2.48 5.01zm10.01-20.56c0 1.78-1.1 3.21-2.47 3.21s-2.48-1.43-2.48-3.2c0-1.78 1.1-3.22 2.48-3.22 1.36 0 2.47 1.44 2.47 3.21zm-6.1-43.55c0 1.77-1.1 3.21-2.47 3.21s-2.48-1.44-2.48-3.21 1.1-3.21 2.48-3.21c1.36 0 2.47 1.44 2.47 3.21zm-.58 26.39c1.34-.3 2.03-2.3 1.55-4.49-.48-2.18-1.95-3.71-3.29-3.42-1.33.3-2.03 2.3-1.54 4.49.48 2.18 1.95 3.71 3.28 3.42zm-5.82 91.3c1.33 0 2.4-1.54 2.4-3.43 0-1.9-1.07-3.42-2.4-3.42s-2.39 1.53-2.39 3.42 1.07 3.42 2.4 3.42zm-29.8-7.07c.7-2.68.21-5.13-1.11-5.48-1.32-.36-2.97 1.53-3.69 4.2-.7 2.67-.22 5.13 1.1 5.48 1.33.35 2.98-1.53 3.7-4.2zm17.3 44.93c1.3-2.76 1.29-5.5-.03-6.1-1.3-.62-3.42 1.12-4.71 3.88-1.3 2.76-1.28 5.5.03 6.11 1.31.61 3.42-1.13 4.72-3.89zm-62-39.16c.6-2.28.18-4.36-.95-4.67-1.13-.3-2.54 1.3-3.15 3.58-.6 2.27-.18 4.36.95 4.66 1.13.3 2.54-1.3 3.15-3.57zm-29.84 15.05c.98-3.66.56-6.95-.94-7.35-1.5-.4-3.5 2.25-4.47 5.9-.98 3.67-.56 6.96.94 7.36 1.49.4 3.5-2.25 4.47-5.91zm33.45 23.96c.63-2.34.23-4.49-.89-4.78-1.11-.3-2.52 1.36-3.15 3.7-.62 2.35-.23 4.5.89 4.8 1.12.29 2.53-1.37 3.15-3.72zm-29.48 21.74c1.13-.26 1.6-2.4 1.04-4.76s-1.92-4.07-3.04-3.8c-1.12.26-1.59 2.4-1.03 4.75.55 2.37 1.91 4.07 3.03 3.81zm32 6.38c1.96-1.88 2.7-4.27 1.67-5.34-1.04-1.07-3.45-.41-5.4 1.46-1.95 1.88-2.69 4.27-1.66 5.34 1.04 1.07 3.45.42 5.4-1.46zm-18.02-202.26a1.94 1.94 0 1 0 0-3.87 1.94 1.94 0 0 0 0 3.87zm61.82 149.06a1.94 1.94 0 1 0 0-3.88 1.94 1.94 0 0 0 0 3.88zm-14.8 9.16c.44-1.54-.04-3.02-1.07-3.31-1.03-.3-2.21.72-2.65 2.26-.44 1.54.04 3.02 1.07 3.31 1.03.3 2.22-.72 2.65-2.26zm10.59 36.48c.48-1.71 0-3.36-1.09-3.66-1.09-.31-2.36.83-2.85 2.55-.48 1.71 0 3.35 1.09 3.66 1.09.31 2.36-.83 2.85-2.55zm-26.09 20.93c1.15-.8 1.55-2.19.91-3.12-.64-.93-2.09-1.04-3.23-.24-1.15.79-1.55 2.18-.9 3.11.63.93 2.08 1.04 3.22.25zm4.13-25.88a1.94 1.94 0 1 0 0-3.87 1.94 1.94 0 0 0 0 3.87zm-63.08-12.28a1.94 1.94 0 1 0 0-3.87 1.94 1.94 0 0 0 0 3.87z"/><path fill="#80a73c" d="M1201.84 985.06c-9.5-17.15-10.4-46.32-10.4-46.32l-10.88 4c1.43 29.84 9.78 38.27 10.1 38.58-7.97-8.01-17.34 1.3-17.34 1.3s-9.51 8.54-3.47 11.16c6.04 2.62 39.83 3.93 31.99-8.72z"/><path fill="#667162" d="M1001.92 733.34a3.43 3.43 0 1 0 0-6.87 3.43 3.43 0 0 0 0 6.87zm6.12 32.5a8.67 8.67 0 1 0 0-17.35 8.67 8.67 0 1 0 0 17.35zm39.94-14.56a9.27 9.27 0 0 0 9.28-9.27 9.27 9.27 0 0 0-9.28-9.27 9.27 9.27 0 0 0-9.27 9.27 9.27 9.27 0 0 0 9.27 9.27zm19.65 19.84a6.12 6.12 0 1 0 0-12.24 6.12 6.12 0 0 0 0 12.24zm-46.06-42.46a1.27 1.27 0 1 0 0-2.54 1.27 1.27 0 0 0 0 2.54zm24.06-7.8a1.27 1.27 0 1 0 0-2.53 1.27 1.27 0 0 0 0 2.54zm-34.53 21.15a1.27 1.27 0 1 0 0-2.53 1.27 1.27 0 0 0 0 2.53zm-10.46 5.15a1.27 1.27 0 1 0 0-2.53 1.27 1.27 0 0 0 0 2.53zm-14.48-3.8a1.64 1.64 0 1 0 0-3.28 1.64 1.64 0 0 0 0 3.28zm16.66 27.07a1.64 1.64 0 1 0 0-3.27 1.64 1.64 0 0 0 0 3.27zm15.53-20.3a1.64 1.64 0 1 0 0-3.28 1.64 1.64 0 0 0 0 3.27zM980 789.1a1.64 1.64 0 1 0 0-3.27 1.64 1.64 0 0 0 0 3.27zm14.08-5.72a1.64 1.64 0 1 0 0-3.28 1.64 1.64 0 0 0 0 3.28zm30.59-38.6a1.64 1.64 0 1 0 0-3.28 1.64 1.64 0 0 0 0 3.28zm-8.97 25.65a1.64 1.64 0 1 0 0-3.27 1.64 1.64 0 0 0 0 3.27zm-32.43-16.04a2.53 2.53 0 1 0 0-5.06 2.53 2.53 0 0 0 0 5.06zm51.29-21.96a2.53 2.53 0 1 0 0-5.06 2.53 2.53 0 0 0 0 5.06zm25.7-1.91a2.53 2.53 0 1 0 0-5.07 2.53 2.53 0 0 0 0 5.06zm21.25 40.38a2.53 2.53 0 1 0 0-5.06 2.53 2.53 0 0 0 0 5.06zm-1.77 35.58a2.53 2.53 0 1 0 0-5.06 2.53 2.53 0 0 0 0 5.06zm-34.7 5a2.53 2.53 0 1 0 0-5.05 2.53 2.53 0 0 0 0 5.06zm-23.46-11.33a2.53 2.53 0 1 0 0-5.06 2.53 2.53 0 0 0 0 5.06zm.72 16.06a4.72 4.72 0 1 0 0-9.45 4.72 4.72 0 0 0 0 9.45zm15.64 7.88a6.43 6.43 0 1 0 0-12.85 6.43 6.43 0 0 0 0 12.85zm-48.82-50.9a3.32 3.32 0 1 0 0-6.64 3.32 3.32 0 0 0 0 6.64zm82.92-33.93a1.64 1.64 0 1 0 0-3.27 1.64 1.64 0 0 0 0 3.27zm-36.79 16.06a2.27 2.27 0 1 0 0-4.54 2.27 2.27 0 0 0 0 4.54zm38.64 23.47a1.64 1.64 0 1 0 0-3.28 1.64 1.64 0 0 0 0 3.28zm3.32 46.1a1.64 1.64 0 1 0 0-3.28 1.64 1.64 0 0 0 0 3.28zm-40.9-25.13a1.64 1.64 0 1 0 0-3.27 1.64 1.64 0 0 0 0 3.27zm11.68 24a1.64 1.64 0 1 0 0-3.28 1.64 1.64 0 0 0 0 3.27zm-10.05 7.94a1.64 1.64 0 1 0 0-3.27 1.64 1.64 0 0 0 0 3.27zm-44.23-73.27a1.27 1.27 0 1 0 0-2.53 1.27 1.27 0 0 0 0 2.53zm39 9.94a1.27 1.27 0 1 0 0-2.54 1.27 1.27 0 0 0 0 2.54zm23.28-12.48a1.27 1.27 0 1 0 0-2.53 1.27 1.27 0 0 0 0 2.54zm6.8-11.26a1.27 1.27 0 1 0 0-2.54 1.27 1.27 0 0 0 0 2.54zm12.37 13a1.27 1.27 0 1 0 0-2.53 1.27 1.27 0 0 0 0 2.54zm-1.27 33.87a1.27 1.27 0 1 0 0-2.54 1.27 1.27 0 0 0 0 2.54zm-59.5 31.88a1.27 1.27 0 1 0 0-2.53 1.27 1.27 0 0 0 0 2.53zm11.55 8.6a1.27 1.27 0 1 0 0-2.54 1.27 1.27 0 0 0 0 2.53zm2.97-26.76a1.27 1.27 0 1 0 0-2.53 1.27 1.27 0 0 0 0 2.53zm-17.06 5a1.27 1.27 0 1 0 0-2.53 1.27 1.27 0 0 0 0 2.53zm15.79 12.8a1.27 1.27 0 1 0 0-2.54 1.27 1.27 0 0 0 0 2.53zm33.88-47.93a1.27 1.27 0 1 0 0-2.53 1.27 1.27 0 0 0 0 2.53zm-6.1-7.99a1.27 1.27 0 1 0 0-2.53 1.27 1.27 0 0 0 0 2.53zm-10.39-3.28a1.27 1.27 0 1 0 0-2.54 1.27 1.27 0 0 0 0 2.54zm-22.73-3.66a1.27 1.27 0 1 0 0-2.53 1.27 1.27 0 0 0 0 2.53zm-37.76 41.26a1.27 1.27 0 1 0 0-2.53 1.27 1.27 0 0 0 0 2.53z"/><path fill="#2a3c31" d="M1284.32 773.38h-17.83v-8.35c0-2.7-1.66-5.02-4-6.01v-34.47a2.51 2.51 0 1 0-5.03 0v34.47a6.52 6.52 0 0 0-4 6v8.36h-14.77l.31 3.1h45.32a7.23 7.23 0 0 1 7.21 7.2v69.02a7.23 7.23 0 0 1-7.21 7.21h-26.5a36.62 36.62 0 0 1 2.76 3.1h23.74c5.68 0 10.3-4.63 10.3-10.32v-69a10.3 10.3 0 0 0-10.3-10.3zm-21.7 0h-5.3v-8.35a2.65 2.65 0 0 1 5.3 0z"/><path fill="#d0cfb9" d="M1240.77 807.18c.23 13.74-.33 26.9-1.65 39.31a146.68 146.68 0 0 1 8.22 5.08l.78.53v-67.5a8.13 8.13 0 0 1 8.12-8.12H1239c.86 8.79 1.58 19.26 1.77 30.7z"/><path fill="#fff" d="M1256.26 776.48a8.13 8.13 0 0 0-8.12 8.12v67.52a85.08 85.08 0 0 1 3.1 2.18v-69.7a5.03 5.03 0 0 1 5.02-5.03h28.04v-3.09z"/><path fill="#80a73c" d="M1246.26 853.18a165.1 165.1 0 0 0-15.25-8.93l-1.74 11.44s21.85 13.55 21.85 19.53c0 5.97-14.65 17.02-14.65 17.02s-9.7-7.2-19.02 2.7c-9.31 9.89.79 19.27.79 19.27s3.18 6.95 10.97 6.68c7.26-.26 8.54-6.18 7.7-8.36 7.82-2.43 5.75-11.58 5.75-11.58 7.58-5.89 16.67-11.38 20-19.98 4.38-12.1-7.27-21.77-16.4-27.79z"/><path fill="#234924" d="M1261.07 863.64c-2.99-4-7.49-7.94-13.73-12.06a146.68 146.68 0 0 0-8.22-5.09 321.13 321.13 0 0 0 1.65-39.3c-.54-32.4-5.33-57.11-5.38-57.35-3.77-19.55-11.58-35.66-22.58-46.6a57.15 57.15 0 0 0-35.51-16.58c.18-3.2 1.19-6.44 2.86-9.1a19.4 19.4 0 0 1 5.2-5.5l.03-.03c.43-.32.97-.66 1.54-1.02 2.26-1.42 5.35-3.36 5.52-6.72.2-3.22-2.3-6.25-5.68-6.88l-.05-.01c-2.15-.35-4.83.08-7.96 1.28-2.59.97-5 2.54-7.4 4.78-6.08 5.25-9.78 13.8-10.28 23.69a53.56 53.56 0 0 0-30.5 15.46c-10.54 10.62-18.22 26.5-22.82 47.18l-.02.08c-.15.82-3.61 20.64-1.57 52.2 1.05 16.06-2.74 34.8-6.1 47.68l-.24.93c-.26.64-2.99 6.73-13.85 15.63-9.6 7.87-16.77 6.52-19.1 5.76-.56-2.56-2.42-8.86-7.44-12.36l-.08-.05c-2.74-1.71-5.52-2.26-8.24-1.62-3.1.72-5.33 2.83-6.52 4.24-3.43-1.17-8.96-1.49-12.4 3.57-1.45 2.14-1.93 4.32-1.4 6.49.62 2.53 2.46 4.31 3.76 5.3-.5 1.97-.95 5.43.85 8.06a7 7 0 0 0 4.84 2.9c.07 1.44.48 3.28 1.97 4.44.83.65 1.84.97 3.01.97 1.3 0 2.79-.39 4.47-1.17a1.93 1.93 0 1 0-1.61-3.5c-2.01.92-3.14.93-3.5.65-.26-.2-.41-.75-.46-1.35a8.63 8.63 0 0 0 5.33-2.7c2.06-2.25 2.52-5.27 2.6-7.06.31-.14.61-.3.9-.47l3.28 9.77 1.15.2c.27.03 2.65.4 6.4.4a60.3 60.3 0 0 0 25.86-5.81c-1.7 5.86-3.7 13.78-4.45 20.85-1.61 15.17 2.72 28.95 12.52 39.85 4.24 4.7 9.4 8.7 15.19 11.82a41.7 41.7 0 0 0 2.17 19.92c-1-.3-2.1-.63-3.16-.89a21.79 21.79 0 0 0-4.3-.63c-5.05-.25-11.43 1.89-15.87 5.3-1.79 1.35-5.96 4.9-6.1 8.67a5.15 5.15 0 0 0 1.87 4.15l.16.12c4.03 2.85 11.18 3.6 17.5 3.6 1.29 0 2.54-.04 3.72-.09 7.55-.31 15.13-1.5 18.24-2.5a6.66 6.66 0 0 0 4.23-2.73 7.92 7.92 0 0 0 1.2-5.94l-.03-.13c-.43-1.7-.97-3.16-1.49-4.57-.61-1.68-1.25-3.42-1.73-5.62l-.02-.07a55.29 55.29 0 0 1-1.63-12.82 67.97 67.97 0 0 0 16.9 2.14 80.13 80.13 0 0 0 35.21-7.86c1.38 9.93 3.57 16.54 5.51 20.75-2.2-.37-4.55-.08-6.99.88a20.79 20.79 0 0 0-6.3 4.04c-1.2 1.09-6.72 6.34-6.02 10.66.19 1.15.88 2.72 3.11 3.69 2.58 1.12 8.84 1.89 15.04 1.89l1.72-.02c6.21-.15 14.3-1.13 17.6-4.93 1.14-1.33 2.67-4.18.07-8.41-3.77-6.8-6.71-16.78-8.52-28.86a170.13 170.13 0 0 1-1.05-8.47c9.62-7.41 17.8-17.09 24.45-28.85a13.24 13.24 0 0 0 10.35 4.91h.53c4.72-.17 7.14-2.37 8.35-4.19a8.51 8.51 0 0 0 1.44-4.87 9.78 9.78 0 0 0 3.19-2.4c2.75-3.2 2.71-7.47 2.48-9.57l3.03-2.27c6.75-5.01 13.73-10.2 16.69-17.86l.02-.04c2.17-6 1.03-12.06-3.4-17.98zm-87.15-197.28.07-.06a18.44 18.44 0 0 1 6.14-4.01c2.44-.94 4.5-1.31 5.95-1.09 1.26.25 2.6 1.48 2.51 2.87-.07 1.38-2 2.6-3.71 3.67-.63.4-1.23.77-1.77 1.17-1.41 1-4.09 3.17-6.22 6.6a23.33 23.33 0 0 0-3.45 10.9 67.91 67.91 0 0 0-2.18-.03c-2.14 0-4.23.1-6.28.28.58-8.55 3.77-15.86 8.94-20.3zM1034.54 871.4c-.25-1.07.03-2.17.85-3.39 2.1-3.08 5.38-2.8 7.34-2.26-.34 1.01-.7 2.33-.9 3.73-.25 1.93-.12 3.65.39 5.1a1.93 1.93 0 0 0-2.93-.52c-.42.36-1.32.62-2.05.75-.9-.63-2.34-1.89-2.7-3.41zm12.05 11.94c-.96 1.04-2.35 1.55-4.23 1.55h-.07c-1.83-.01-3.07-.48-3.7-1.38-.9-1.3-.62-3.53-.28-4.97a7.99 7.99 0 0 0 3.48-1.54c.58-.49.79-1.25.62-1.94a6.96 6.96 0 0 0 3.54 3.65c.72.34 1.46.57 2.2.68-.13 1.2-.5 2.8-1.56 3.95zm12.55 1.34-3.05-9.1a17.05 17.05 0 0 0 2.14-3.5 1.93 1.93 0 0 0-1-2.54 1.93 1.93 0 0 0-2.55 1c-.47 1.07-2.18 4.04-4.36 4.86-.88.33-1.75.27-2.72-.18-3.91-1.85-1.06-8.74-.66-9.67.66-1.01 4.5-6.25 10.34-2.65 4.84 3.41 6 10.76 6 10.83l.15.98.87.45c.42.22 10.5 5.31 24.13-5.87a81.6 81.6 0 0 0 8.27-7.7 222.25 222.25 0 0 1-4.27 12.62l-.02.05a140 140 0 0 0-1.17 3.49c-13.9 7.93-28.06 7.3-32.1 6.92zm69.63 100.54a4.01 4.01 0 0 1-.57 2.96 2.78 2.78 0 0 1-1.86 1.16l-.14.03-.15.04c-5.81 1.94-28.94 4.5-36.05-.38-.45-.42-.5-.76-.49-1.05.05-1.4 1.89-3.7 4.58-5.73 3.72-2.86 9.2-4.72 13.35-4.52 1.12.05 2.29.22 3.56.53 1.15.28 2.37.65 3.46.98.98.3 1.83.56 2.4.68 1.2.29 2.12.05 2.73-.68.27-.33.84-1.23.24-2.58l-.04-.08c-2.68-5.38-3.89-12.83-3.22-19.27a65.45 65.45 0 0 0 7.27 2.83c-.22 4.49.65 10.74 1.7 14.87.55 2.43 1.23 4.29 1.88 6.08.5 1.36.97 2.65 1.35 4.13zm132.08-104.93c-2.56 6.6-9.08 11.44-15.38 16.12a245.38 245.38 0 0 0-4 3.01l-.96.75.26 1.2c.01.04.99 4.66-1.45 7.46-1.59 1.83-4.4 2.6-8.35 2.29a1.93 1.93 0 1 0-.3 3.85 25.37 25.37 0 0 0 4.42-.08 4.87 4.87 0 0 1-.68 1.6c-1 1.52-2.83 2.37-5.26 2.46-6.35.22-9.04-5.33-9.15-5.56l-.16-.35-.08-.07c-.2-.43-.72-2.16 1.57-5.19.65-.85.48-2.06-.37-2.7a1.93 1.93 0 0 0-2.7.37 14.19 14.19 0 0 0-1.76 2.94 12.27 12.27 0 0 1-.38-.92c-1.46-3.96-.54-7.74 2.74-11.22 7.99-8.48 16.13-2.72 16.46-2.47l1.16.86 1.16-.87c2.57-1.94 15.41-11.96 15.41-18.57 0-2.01-1.21-5.6-11.69-13.54-5.47-4.14-10.84-7.48-11.06-7.63a1.93 1.93 0 0 0-2.66.62 1.93 1.93 0 0 0 .62 2.66c.03.02 2.16 1.35 5.05 3.32a203.91 203.91 0 0 1-6.37 27.21c-3.47.34-7.29 1.93-10.89 5.76-3.09 3.28-4.6 6.88-4.46 10.7.16 4.7 2.78 8.42 4.29 10.19-6.12 11.23-13.64 20.5-22.31 27.66-.15-2.16-.2-3.45-.2-3.48a1.93 1.93 0 0 0-1.99-1.87 1.93 1.93 0 0 0-1.87 2c.01.32.1 2.64.4 6.2l.42 4.39c1.13 10.2 3.76 25.64 9.83 36.6l.05.08c1.53 2.48.68 3.47.32 3.89-1.8 2.07-7.31 3.41-14.76 3.6-6.77.15-13.13-.69-15.14-1.56-.76-.33-.8-.64-.83-.77-.26-1.62 2.63-5.21 4.82-7.19l.07-.06c.33-.32 9.5-9.1 15.99-2.66-.22-.23-.83-3.75-2.88-9.02-1.48-3.78-3.24-9.79-4.36-18.66l-.46-4.14c-.2-2.14-.37-4.42-.48-6.86a1.92 1.92 0 0 0-2.02-1.83 1.93 1.93 0 0 0-1.84 2.02c.15 3.1.38 5.99.66 8.65a76.59 76.59 0 0 1-34.73 8.03c-17.14 0-33.58-6.9-43.97-18.45-9.05-10.06-13.05-22.8-11.55-36.86 1.3-12.31 6.76-27.95 7-28.63.8-2.07 16.03-42.24 13.99-73.77-1.98-30.43 1.34-50.27 1.5-51.23 8.94-40.04 29.03-60.34 59.73-60.34 15.05 0 28.47 5.44 38.82 15.74 10.45 10.39 17.9 25.8 21.52 44.6.04.24 4.78 24.67 5.3 56.74.22 12.94-.28 25.36-1.46 37.1a206.24 206.24 0 0 0-3.54-1.89 1.93 1.93 0 1 0-1.79 3.43 162.51 162.51 0 0 1 15.09 8.83c13.5 8.91 18.62 17.25 15.64 25.5zm-21.8-15.53c9.85 7.46 10.13 10.17 10.13 10.45 0 3.25-7.16 10.22-12.81 14.66a16.26 16.26 0 0 0-5.43-1.89c2.38-7.8 4.34-16.11 5.86-24.88.74.54 1.5 1.1 2.25 1.67z"/><path fill="#234924" d="M1261.07 863.64c-2.99-4-7.49-7.94-13.73-12.06a146.68 146.68 0 0 0-8.22-5.09 321.13 321.13 0 0 0 1.65-39.3c-.54-32.4-5.33-57.11-5.38-57.35-3.77-19.55-11.58-35.66-22.58-46.6a57.15 57.15 0 0 0-35.51-16.58c.18-3.2 1.19-6.44 2.86-9.1a19.4 19.4 0 0 1 5.2-5.5l.03-.03c.43-.32.97-.66 1.54-1.02 2.26-1.42 5.35-3.36 5.52-6.72.2-3.22-2.3-6.25-5.68-6.88l-.05-.01c-2.15-.35-4.83.08-7.96 1.28-2.59.97-5 2.54-7.4 4.78-6.08 5.25-9.78 13.8-10.28 23.69a53.56 53.56 0 0 0-30.5 15.46c-10.54 10.62-18.22 26.5-22.82 47.18l-.02.08c-.15.82-3.61 20.64-1.57 52.2 1.05 16.06-2.74 34.8-6.1 47.68l-.24.93c-.26.64-2.99 6.73-13.85 15.63-9.6 7.87-16.77 6.52-19.1 5.76-.56-2.56-2.42-8.86-7.44-12.36l-.08-.05c-2.74-1.71-5.52-2.26-8.24-1.62-3.1.72-5.33 2.83-6.52 4.24-3.43-1.17-8.96-1.49-12.4 3.57-1.45 2.14-1.93 4.32-1.4 6.49.62 2.53 2.46 4.31 3.76 5.3-.5 1.97-.95 5.43.85 8.06a7 7 0 0 0 4.84 2.9c.07 1.44.48 3.28 1.97 4.44.83.65 1.84.97 3.01.97 1.3 0 2.79-.39 4.47-1.17a1.93 1.93 0 1 0-1.61-3.5c-2.01.92-3.14.93-3.5.65-.26-.2-.41-.75-.46-1.35a8.63 8.63 0 0 0 5.33-2.7c2.06-2.25 2.52-5.27 2.6-7.06.31-.14.61-.3.9-.47l3.28 9.77 1.15.2c.27.03 2.65.4 6.4.4a60.3 60.3 0 0 0 25.86-5.81c-1.7 5.86-3.7 13.78-4.45 20.85-1.61 15.17 2.72 28.95 12.52 39.85 4.24 4.7 9.4 8.7 15.19 11.82a41.7 41.7 0 0 0 2.17 19.92c-1-.3-2.1-.63-3.16-.89a21.79 21.79 0 0 0-4.3-.63c-5.05-.25-11.43 1.89-15.87 5.3-1.79 1.35-5.96 4.9-6.1 8.67a5.15 5.15 0 0 0 1.87 4.15l.16.12c4.03 2.85 11.18 3.6 17.5 3.6 1.29 0 2.54-.04 3.72-.09 7.55-.31 15.13-1.5 18.24-2.5a6.66 6.66 0 0 0 4.23-2.73 7.92 7.92 0 0 0 1.2-5.94l-.03-.13c-.43-1.7-.97-3.16-1.49-4.57-.61-1.68-1.25-3.42-1.73-5.62l-.02-.07a55.29 55.29 0 0 1-1.63-12.82 67.97 67.97 0 0 0 16.9 2.14 80.13 80.13 0 0 0 35.21-7.86c1.38 9.93 3.57 16.54 5.51 20.75-2.2-.37-4.55-.08-6.99.88a20.79 20.79 0 0 0-6.3 4.04c-1.2 1.09-6.72 6.34-6.02 10.66.19 1.15.88 2.72 3.11 3.69 2.58 1.12 8.84 1.89 15.04 1.89l1.72-.02c6.21-.15 14.3-1.13 17.6-4.93 1.14-1.33 2.67-4.18.07-8.41-3.77-6.8-6.71-16.78-8.52-28.86a170.13 170.13 0 0 1-1.05-8.47c9.62-7.41 17.8-17.09 24.45-28.85a13.24 13.24 0 0 0 10.35 4.91h.53c4.72-.17 7.14-2.37 8.35-4.19a8.51 8.51 0 0 0 1.44-4.87 9.78 9.78 0 0 0 3.19-2.4c2.75-3.2 2.71-7.47 2.48-9.57l3.03-2.27c6.75-5.01 13.73-10.2 16.69-17.86l.02-.04c2.17-6 1.03-12.06-3.4-17.98zm-87.15-197.28.07-.06a18.44 18.44 0 0 1 6.14-4.01c2.44-.94 4.5-1.31 5.95-1.09 1.26.25 2.6 1.48 2.51 2.87-.07 1.38-2 2.6-3.71 3.67-.63.4-1.23.77-1.77 1.17-1.41 1-4.09 3.17-6.22 6.6a23.33 23.33 0 0 0-3.45 10.9 67.91 67.91 0 0 0-2.18-.03c-2.14 0-4.23.1-6.28.28.58-8.55 3.77-15.86 8.94-20.3zM1034.54 871.4c-.25-1.07.03-2.17.85-3.39 2.1-3.08 5.38-2.8 7.34-2.26-.34 1.01-.7 2.33-.9 3.73-.25 1.93-.12 3.65.39 5.1a1.93 1.93 0 0 0-2.93-.52c-.42.36-1.32.62-2.05.75-.9-.63-2.34-1.89-2.7-3.41zm12.05 11.94c-.96 1.04-2.35 1.55-4.23 1.55h-.07c-1.83-.01-3.07-.48-3.7-1.38-.9-1.3-.62-3.53-.28-4.97a7.99 7.99 0 0 0 3.48-1.54c.58-.49.79-1.25.62-1.94a6.96 6.96 0 0 0 3.54 3.65c.72.34 1.46.57 2.2.68-.13 1.2-.5 2.8-1.56 3.95zm12.55 1.34-3.05-9.1a17.05 17.05 0 0 0 2.14-3.5 1.93 1.93 0 0 0-1-2.54 1.93 1.93 0 0 0-2.55 1c-.47 1.07-2.18 4.04-4.36 4.86-.88.33-1.75.27-2.72-.18-3.91-1.85-1.06-8.74-.66-9.67.66-1.01 4.5-6.25 10.34-2.65 4.84 3.41 6 10.76 6 10.83l.15.98.87.45c.42.22 10.5 5.31 24.13-5.87a81.6 81.6 0 0 0 8.27-7.7 222.25 222.25 0 0 1-4.27 12.62l-.02.05a140 140 0 0 0-1.17 3.49c-13.9 7.93-28.06 7.3-32.1 6.92zm69.63 100.54a4.01 4.01 0 0 1-.57 2.96 2.78 2.78 0 0 1-1.86 1.16l-.14.03-.15.04c-5.81 1.94-28.94 4.5-36.05-.38-.45-.42-.5-.76-.49-1.05.05-1.4 1.89-3.7 4.58-5.73 3.72-2.86 9.2-4.72 13.35-4.52 1.12.05 2.29.22 3.56.53 1.15.28 2.37.65 3.46.98.98.3 1.83.56 2.4.68 1.2.29 2.12.05 2.73-.68.27-.33.84-1.23.24-2.58l-.04-.08c-2.68-5.38-3.89-12.83-3.22-19.27a65.45 65.45 0 0 0 7.27 2.83c-.22 4.49.65 10.74 1.7 14.87.55 2.43 1.23 4.29 1.88 6.08.5 1.36.97 2.65 1.35 4.13zm132.08-104.93c-2.56 6.6-9.08 11.44-15.38 16.12a245.38 245.38 0 0 0-4 3.01l-.96.75.26 1.2c.01.04.99 4.66-1.45 7.46-1.59 1.83-4.4 2.6-8.35 2.29a1.93 1.93 0 1 0-.3 3.85 25.37 25.37 0 0 0 4.42-.08 4.87 4.87 0 0 1-.68 1.6c-1 1.52-2.83 2.37-5.26 2.46-6.35.22-9.04-5.33-9.15-5.56l-.16-.35-.08-.07c-.2-.43-.72-2.16 1.57-5.19.65-.85.48-2.06-.37-2.7a1.93 1.93 0 0 0-2.7.37 14.19 14.19 0 0 0-1.76 2.94 12.27 12.27 0 0 1-.38-.92c-1.46-3.96-.54-7.74 2.74-11.22 7.99-8.48 16.13-2.72 16.46-2.47l1.16.86 1.16-.87c2.57-1.94 15.41-11.96 15.41-18.57 0-2.01-1.21-5.6-11.69-13.54-5.47-4.14-10.84-7.48-11.06-7.63a1.93 1.93 0 0 0-2.66.62 1.93 1.93 0 0 0 .62 2.66c.05.04 5.47 3.4 10.8 7.44 9.85 7.46 10.13 10.16 10.13 10.45 0 3.25-7.17 10.22-12.82 14.66-4.38-2.5-12.82-4.23-20.32 3.74-3.09 3.28-4.6 6.88-4.46 10.7.16 4.7 2.78 8.42 4.29 10.19-6.12 11.23-13.64 20.5-22.31 27.66-.15-2.16-.2-3.45-.2-3.48a1.93 1.93 0 0 0-1.99-1.87 1.93 1.93 0 0 0-1.87 2c.01.32.1 2.64.4 6.2l.42 4.39c1.13 10.2 3.76 25.64 9.83 36.6l.05.08c1.53 2.48.68 3.47.32 3.89-1.8 2.07-7.31 3.41-14.76 3.6-6.77.15-13.13-.69-15.14-1.56-.76-.33-.8-.64-.83-.77-.26-1.62 2.63-5.21 4.82-7.19l.07-.06c.33-.32 9.5-9.1 15.99-2.66-.22-.23-.83-3.75-2.88-9.02-1.48-3.78-3.24-9.79-4.36-18.66l-.46-4.14c-.2-2.14-.37-4.42-.48-6.86a1.92 1.92 0 0 0-2.02-1.83 1.93 1.93 0 0 0-1.84 2.02c.15 3.1.38 5.99.66 8.65a76.59 76.59 0 0 1-34.73 8.03c-17.14 0-33.58-6.9-43.97-18.45-9.05-10.06-13.05-22.8-11.55-36.86 1.3-12.31 6.76-27.95 7-28.63.8-2.07 16.03-42.24 13.99-73.77-1.98-30.43 1.34-50.27 1.5-51.23 8.94-40.04 29.03-60.34 59.73-60.34 15.05 0 28.47 5.44 38.82 15.74 10.45 10.39 17.9 25.8 21.52 44.6.04.24 4.78 24.67 5.3 56.74.22 12.94-.28 25.36-1.46 37.1a206.24 206.24 0 0 0-3.54-1.89 1.93 1.93 0 1 0-1.79 3.43 162.51 162.51 0 0 1 15.09 8.83c13.5 8.91 18.62 17.25 15.64 25.5z"/><path fill="#667162" fill-rule="evenodd" d="M567.94 704.08v7.3H552.7v7.9h11.41v7.09h-11.4v15.15h-9.13v-37.44zm13.92 7.3v7.58h12.22V726h-12.22v8.21h13.82v7.3h-22.94v-37.43h22.94v7.3zm28.86-7.3v37.44h-9.12v-37.44zm40.1 37.44h-9.12l-15.25-23.1v23.1h-9.12v-37.44h9.12l15.25 23.2v-23.2h9.12zm20.16.37q-4.1 0-7.36-1.33-3.25-1.34-5.22-3.95-1.92-2.61-2.03-6.3h9.7q.22 2.09 1.45 3.2 1.22 1.07 3.2 1.07 2.02 0 3.2-.9 1.17-.96 1.17-2.62 0-1.38-.96-2.29-.9-.9-2.3-1.5-1.33-.58-3.83-1.33-3.63-1.12-5.92-2.24-2.3-1.12-3.95-3.3-1.65-2.19-1.65-5.71 0-5.23 3.78-8.16 3.8-2.99 9.87-2.99 6.19 0 9.97 2.99 3.8 2.93 4.06 8.21h-9.87q-.1-1.81-1.33-2.82-1.23-1.07-3.15-1.07-1.65 0-2.67.9-1 .86-1 2.51 0 1.82 1.7 2.83t5.33 2.19q3.63 1.22 5.87 2.34 2.3 1.12 3.94 3.26 1.66 2.13 1.66 5.49 0 3.2-1.66 5.81-1.6 2.62-4.69 4.16-3.1 1.55-7.3 1.55zm46.19-37.81v7.3h-9.92v30.14h-9.12v-30.14h-9.92v-7.3zm27.89 30.82H731.1l-2.24 6.62h-9.55l13.55-37.44h10.56l13.55 37.44h-9.66zm-2.34-7.04-4.64-13.7-4.59 13.7zm27.3-23.78v22.4q0 3.36 1.66 5.17 1.65 1.81 4.85 1.81 3.2 0 4.9-1.81 1.71-1.81 1.71-5.17v-22.4h9.12v22.34q0 5.02-2.13 8.48-2.13 3.47-5.76 5.23-3.57 1.76-8 1.76t-7.95-1.7q-3.46-1.77-5.49-5.23-2.03-3.52-2.03-8.54v-22.34zm51.31 18.24q3.25.69 5.23 3.25 1.97 2.5 1.97 5.76 0 4.7-3.3 7.47-3.26 2.72-9.13 2.72h-17.44v-37.44h16.86q5.7 0 8.9 2.61 3.26 2.61 3.26 7.1 0 3.3-1.76 5.49-1.7 2.18-4.59 3.04zm-13.55-3.1h5.98q2.24 0 3.41-.96 1.23-1.01 1.23-2.93 0-1.92-1.23-2.93-1.17-1.02-3.41-1.02h-5.98zm6.72 14.94q2.3 0 3.52-1.02 1.28-1.06 1.28-3.04 0-1.97-1.33-3.09-1.28-1.12-3.57-1.12h-6.62v8.27z" aria-label="FEINSTAUB" font-family="Poppins" font-size="53.33" font-weight="700" opacity=".73" paint-order="markers stroke fill" style="-inkscape-font-specification:&quot;Poppins Bold&quot;;text-align:center" text-anchor="middle"/><g style="-inkscape-font-specification:&quot;Poppins Bold&quot;;text-align:center" text-anchor="middle" word-spacing="0"><path fill="#508333" fill-rule="evenodd" d="M706.44 757.05q-.9-1.5-2.5-2.3-1.55-.8-3.69-.8-3.94 0-6.24 2.57-2.24 2.56-2.24 6.88 0 4.85 2.4 7.41 2.46 2.5 7.1 2.5 5.5 0 7.84-4.95h-10.5v-7.52h19.51v10.13q-1.23 2.99-3.63 5.6-2.34 2.62-5.97 4.32-3.63 1.66-8.27 1.66-5.65 0-10.02-2.4-4.32-2.46-6.72-6.78-2.35-4.37-2.35-9.97 0-5.55 2.35-9.87 2.4-4.37 6.72-6.77 4.32-2.45 9.97-2.45 7.1 0 11.73 3.4 4.64 3.42 5.76 9.34zm26.61-12.37v21.81q0 3.04 1.4 4.7 1.43 1.65 4.31 1.65t4.32-1.65q1.5-1.71 1.5-4.7v-21.81h10.45v21.81q0 5.18-2.19 8.86-2.19 3.62-5.97 5.49-3.74 1.81-8.32 1.81-4.59 0-8.22-1.81-3.57-1.87-5.65-5.5-2.03-3.62-2.03-8.85v-21.81zm46.78 37.6-7.47-13.87h-1.12v13.87H760.8v-37.6h16.48q4.53 0 7.68 1.6 3.14 1.55 4.74 4.32 1.6 2.72 1.6 6.13 0 3.84-2.13 6.78-2.08 2.88-6.13 4.1l8.48 14.67zm-8.59-21.01h5.17q2.14 0 3.2-1.02 1.07-1.01 1.07-2.93 0-1.81-1.12-2.83-1.07-1.06-3.15-1.06h-5.17zm47.04 21.01L806.5 765.8v16.48h-10.45v-37.6h10.45v16.21l11.68-16.21h12.06l-13.82 18.24 14.51 19.36zm26.93-29.23v6.14h12v7.94h-12v6.78h13.6v8.37h-24.05v-37.6h24.05v8.37z" aria-label="GURKE" font-family="Poppins" font-size="53.33" font-weight="700" opacity=".73" paint-order="markers stroke fill" style="-inkscape-font-specification:&quot;Poppins Ultra-Bold&quot;"/></g></g><defs><clipPath id="a"><path fill="#fff" d="M0 0h1536v1024H0z"/></clipPath></defs></svg>