<svg xmlns="http://www.w3.org/2000/svg" width="1536" height="438" fill="none"><g clip-path="url(#a)" transform="translate(0 -585.204)"><path fill="#fafae6" d="M1536 585.204H0v438.473h1536z" style="stroke-width:.654367"/><path fill="#ebe6c8" d="M1525.68 810.4v-78.02h-54.21v68.65h-31.61v-35.26h-54.21v73.65h-18.28l-4.97-169.54h-14.97l-4.97 169.54h-21.19v-50.87h-71.69v37.16h-12.37v-84.26H1133.8v102.68h-40.04V807.3h-59.52v63.67h-29.73v-29.03h-59.52v19.98h-63.14v11.54H592.92v-35.89h-47.8v24.35h-20.88v-44.01h-50.9v17.17h-33.71v25.3h-22.86V801.4h-23.64v-19.04h-28.7v19.04h-18.69v25.59h-17.12V724.93h-55.44v126.71h-28.02v-37.05h-50.32v22.03h-14.15v-63.79h-28.3v50.06h-15.56v-14.67h-21.89v14.67h-14.07v13.73H85.48v20.01H66.24v-91.44H20.51v59.92H0v91.99h1536V810.4Z"/><path fill="#dcdcbe" d="M216.8 917.1c-1.55-11.41-11.33-20.21-23.17-20.21-.97 0-1.93.07-2.87.18-3.98-7.24-11.67-12.15-20.52-12.15-3.65 0-7.1.83-10.17 2.32-3.76-2.58-8.31-4.1-13.22-4.1-10.1 0-18.7 6.4-21.98 15.36a23.283 23.283 0 0 0-12.83-3.84c-11.4 0-20.89 8.16-22.96 18.95-4.91-11.16-16.05-18.95-29.02-18.95-14.28 0-26.35 9.44-30.32 22.42H216.8ZM377.99 917.1c-3.96-12.82-15.9-22.13-30.02-22.13-6.27 0-12.1 1.84-17.01 5.01-6.41-11.41-18.63-19.13-32.65-19.13-12.81 0-24.12 6.44-30.87 16.26-4.62-2.67-9.97-4.2-15.69-4.2-14.86 0-27.31 10.33-30.57 24.2h156.8zM564.79 917.1c-3.26-13.87-15.71-24.2-30.57-24.2-9.41 0-17.85 4.14-23.6 10.7a22.908 22.908 0 0 0-10.06-2.31c-6.97 0-13.22 3.1-17.44 8-8.94-10.19-22.06-16.64-36.69-16.64-18.08 0-33.85 9.84-42.28 24.45zM1139.68 917.1c-6.3-9.03-16.76-14.95-28.61-14.95-.72 0-1.43.03-2.14.07-8.87-12.24-23.27-20.21-39.54-20.21-13.47 0-25.67 5.46-34.51 14.29-1.62-.23-3.27-.36-4.96-.36-11.83 0-22.27 5.89-28.58 14.9-5.27-12.57-17.69-21.4-32.17-21.4-12.79 0-23.96 6.89-30.03 17.16-.19 0-.37-.01-.56-.01-9.78 0-18.61 4.03-24.94 10.51h226.03zM1533.36 880.36c-9.8-10.55-23.79-17.16-39.33-17.16-27.07 0-49.45 20.04-53.14 46.1-6.38-8.13-16.29-13.36-27.43-13.36-14.27 0-26.53 8.58-31.93 20.86-4.78-21.56-24-37.69-47.01-37.69-18.18 0-34.01 10.08-42.2 24.96a48.54 48.54 0 0 0-26.95-8.12c-9.96 0-19.24 3-26.96 8.13-8.92-9.74-21.74-15.85-36-15.85-19.85 0-36.93 11.86-44.55 28.88h375.5v-36.73z"/><path fill="#ebe6c8" d="M1149.486 998.883c51.26 0 92.813-2.873 92.813-6.418 0-3.544-41.554-6.417-92.813-6.417-51.26 0-92.813 2.873-92.813 6.417 0 3.545 41.554 6.418 92.813 6.418z"/><path fill="#667466" d="M1255.389 774.926v-9.894a4.582 4.582 0 0 1 9.164 0v9.894"/><path fill="#70888d" d="M1280.394 789.936h-20.16c-1.21 0-2.19.98-2.19 2.19v33.648c0 1.21.98 2.19 2.19 2.19h20.16c1.209 0 2.19-.98 2.19-2.19v-33.647c0-1.21-.981-2.191-2.19-2.191z"/><path fill="#2a3c31" d="M1280.39 788.39h-20.16a3.741 3.741 0 0 0-3.736 3.737v33.647a3.741 3.741 0 0 0 3.736 3.736h20.16a3.741 3.741 0 0 0 3.736-3.736v-33.647a3.741 3.741 0 0 0-3.736-3.736zm.645 37.384a.654.654 0 0 1-.645.645h-20.16a.654.654 0 0 1-.645-.645v-33.647c0-.348.293-.646.645-.646h20.16c.347 0 .645.294.645.646z"/><path fill="#fff" d="M1268.05 796.929c.467.251.83.61 1.09 1.074.254.464.385.993.385 1.592 0 .599-.13 1.109-.397 1.557a2.731 2.731 0 0 1-1.12 1.043c-.48.247-1.036.37-1.662.37h-1.99c-.046 0-.07.024-.07.07v3.578a.16.16 0 0 1-.05.12.16.16 0 0 1-.12.05h-1.638a.16.16 0 0 1-.12-.05.155.155 0 0 1-.05-.12v-9.493a.16.16 0 0 1 .05-.12.177.177 0 0 1 .12-.05h3.957c.618 0 1.159.128 1.626.379zm-.885 3.682c.263-.247.394-.572.394-.974s-.131-.742-.394-.997c-.263-.254-.607-.378-1.04-.378h-1.78c-.047 0-.07.023-.07.07v2.58c0 .047.023.07.07.07h1.78c.43 0 .777-.124 1.04-.371zM1276.515 796.562h1.642a.16.16 0 0 1 .12.05c.034.031.05.074.05.12v9.481a.16.16 0 0 1-.05.12.155.155 0 0 1-.12.05h-1.642a.16.16 0 0 1-.12-.05.155.155 0 0 1-.05-.12v-6.185c0-.04-.012-.055-.027-.055-.016 0-.04.016-.055.043l-1.487 2.33a.222.222 0 0 1-.197.112h-.827a.222.222 0 0 1-.197-.112l-1.487-2.33c-.02-.027-.039-.039-.054-.035-.02.004-.027.027-.027.062v6.17a.16.16 0 0 1-.05.12.16.16 0 0 1-.12.05h-1.642a.16.16 0 0 1-.12-.05.155.155 0 0 1-.05-.12v-9.481a.16.16 0 0 1 .05-.12.17.17 0 0 1 .12-.05h1.642c.085 0 .15.039.197.112l2.101 3.269c.027.054.054.054.085 0l2.118-3.269a.222.222 0 0 1 .197-.112zM1265.314 819.322c.012.02.031.03.062.03h4.227c.05 0 .096.02.131.055a.175.175 0 0 1 .054.131v1.515c0 .05-.02.096-.054.131a.17.17 0 0 1-.131.054h-7.02a.184.184 0 0 1-.132-.054.17.17 0 0 1-.054-.131v-1.437c0-.093.031-.17.093-.236a35.739 35.739 0 0 0 1.56-1.63c.53-.588.862-.955 1.002-1.102.29-.344.587-.672.888-.985.947-1.05 1.422-1.831 1.422-2.341 0-.363-.131-.665-.39-.896-.26-.236-.6-.352-1.013-.352-.413 0-.753.116-1.016.352-.259.231-.39.544-.39.927v.39a.184.184 0 0 1-.19.185h-1.842a.184.184 0 0 1-.131-.054.17.17 0 0 1-.055-.131v-.734c.031-.56.21-1.059.53-1.491.32-.433.75-.762 1.286-.99a4.566 4.566 0 0 1 1.805-.343c.738 0 1.379.139 1.927.413.545.274.966.65 1.264 1.117.297.467.444.989.444 1.56 0 .437-.108.885-.328 1.341-.22.456-.545.95-.982 1.484-.32.405-.672.807-1.047 1.201-.374.394-.93.966-1.669 1.716l-.231.235c-.02.02-.027.043-.016.062zM1278.327 817.746a3.95 3.95 0 0 1-.252 1.437 3.093 3.093 0 0 1-1.263 1.584c-.603.39-1.31.583-2.121.583-.811 0-1.484-.19-2.082-.568a3.08 3.08 0 0 1-1.272-1.553 4.668 4.668 0 0 1-.235-.858v-.03c0-.116.062-.17.19-.17h1.888c.105 0 .17.058.201.17a.614.614 0 0 0 .047.154.475.475 0 0 1 .046.108c.104.27.259.48.467.626.21.147.453.22.735.22s.544-.077.765-.235a1.36 1.36 0 0 0 .482-.657c.105-.209.155-.48.155-.811 0-.302-.046-.572-.14-.812-.072-.27-.22-.479-.436-.626a1.347 1.347 0 0 0-.765-.22c-.29 0-.56.07-.811.201-.251.135-.417.313-.498.53-.031.104-.1.154-.201.154h-1.92a.184.184 0 0 1-.132-.054.17.17 0 0 1-.054-.132v-6.286a.184.184 0 0 1 .186-.185h6.444a.2.2 0 0 1 .135.054.184.184 0 0 1 .054.131v1.515a.184.184 0 0 1-.19.185h-4.353c-.05 0-.078.027-.078.078l-.015 2.31c0 .073.03.089.093.046.467-.3 1.008-.452 1.622-.452.727 0 1.364.186 1.913.553.545.37.935.877 1.163 1.522.154.51.235 1.005.235 1.484z"/><path fill="#2a3c31" d="M1277.187 841.931h-13.747a1.545 1.545 0 1 1 0-3.09h13.747a1.545 1.545 0 1 1 0 3.09zM1274.417 848.998h-8.21a1.545 1.545 0 1 1 0-3.091h8.21a1.545 1.545 0 1 1 0 3.09z"/><path fill="#a0bd50" d="M1087.117 904.01c-3.7 34.857 25.72 57.447 57.447 57.447 31.727 0 58.154-17.336 74.114-48.09 34.003-65.525 14.816-163.167 14.816-163.167-7.537-39.057-30.506-61.894-62.233-61.894-31.727 0-52.54 21.122-61.62 61.894 0 0-3.596 20.044-1.54 51.732 2.05 31.623-13.875 72.974-13.875 72.974s-5.737 16.188-7.109 29.1z"/><path fill="#a0bd50" d="M1175.34 688.438c-.146-3.933.924-8.322 3.18-11.896a21.237 21.237 0 0 1 5.718-6.066c2.21-1.63 6.128-3.253 6.282-6.301.147-2.38-1.877-4.455-4.106-4.872-2.191-.36-4.841.363-6.974 1.178-2.631.993-4.872 2.62-6.773 4.416-5.66 4.853-9.558 13.271-9.709 23.93"/><path fill="#508333" d="M1169.982 688.02s-.591.244-1.553.634l6.912-.216c-.147-3.933.923-8.322 3.18-11.896a21.237 21.237 0 0 1 5.717-6.066c2.21-1.63 6.128-3.253 6.282-6.301.074-1.198-.405-2.318-1.182-3.192-7.688 2.69-19.356 9.636-19.356 27.037z"/><path fill="#80a73c" d="M1125.888 958.783c-.518 4.057.317 11.027 1.537 15.779.92 4.2 2.318 6.657 3.238 10.254.56 3.071-1.074 5.95-4.003 6.436-5.211 1.731-29.756 5.038-37.866-.703-3.5-3.071 1.41-7.777 4.115-9.825 3.883-2.983 9.813-5.146 14.608-4.914 1.329.054 2.642.266 3.94.58 2.226.54 4.714 1.413 5.842 1.657.541.127 1.097.15.765-.603-3.21-6.448-4.455-15.555-3.037-22.984"/><path fill="#508333" d="M1123.836 960.14a64.7 64.7 0 0 1-7.27-2.829c-.41 3.98-.101 8.345.822 12.367 2.079.95 4.62 1.65 7.433 2.005-.691-3.736-1.15-8.148-.985-11.548zM1228.26 857.323a1.928 1.928 0 0 1-.623-2.658 1.928 1.928 0 0 1 2.658-.622c.143.09 2.407 1.495 5.448 3.586.406-2.67.765-5.34 1.082-7.998a198.01 198.01 0 0 0-6.707-3.67 1.932 1.932 0 1 1 1.788-3.427c1.214.634 2.388 1.263 3.536 1.89 1.182-11.75 1.68-24.163 1.468-37.106-.53-32.071-5.262-56.5-5.309-56.743-3.624-18.785-11.065-34.204-21.512-44.597-10.091-10.034-23.1-15.454-37.68-15.725 17.18 5.07 31.023 26.245 37.278 54.909 4.096 17.528 6.34 36.483 6.34 56.272 0 58.845-19.789 110.353-49.383 138.688v-.085c-8.801 8.122-20.558 13.082-33.477 13.082-12.92 0-24.673-4.96-33.474-13.078.294.344.591.688.896 1.028 10.393 11.556 26.833 18.452 43.975 18.452 12.54 0 24.22-2.743 34.725-8.028a153.336 153.336 0 0 1-.657-8.658 1.93 1.93 0 0 1 3.856-.186c.116 2.434.282 4.718.483 6.862l.228 2.051a78.671 78.671 0 0 0 6.912-4.373l-.213-2.183c-.297-3.558-.378-5.88-.39-6.209a1.93 1.93 0 0 1 1.87-1.99 1.925 1.925 0 0 1 1.99 1.87c0 .031.042 1.318.193 3.478 8.677-7.152 16.196-16.436 22.312-27.663-1.51-1.77-4.134-5.49-4.289-10.188-.127-3.817 1.376-7.418 4.463-10.702 4.327-4.594 8.96-5.962 12.95-5.822 2.604-8.489 4.586-17.205 6.066-25.929a159.373 159.373 0 0 0-6.808-4.535z"/><path fill="#508333" d="M1219.582 911.586c3.195-6.39 5.9-13.066 8.175-19.916-2.681.155-5.8 1.298-8.898 4.586-3.284 3.485-4.203 7.263-2.743 11.224.116.316.248.618.383.915.394-.908.954-1.889 1.75-2.936a1.933 1.933 0 0 1 2.704-.375 1.933 1.933 0 0 1 .375 2.705c-1.256 1.653-1.665 2.917-1.746 3.797z"/><path fill="#80a73c" d="M1117.322 784.635h.047c0 .56.004 1.117.004 1.677 0 38.121-7.214 73.14-19.268 100.703h.058c-3.09 10.126-4.818 21.388-4.818 33.257 0 3.786.182 7.506.522 11.15a46.449 46.449 0 0 0 5.818 8.627c8.801 8.117 20.558 13.078 33.474 13.078 12.916 0 24.676-4.96 33.477-13.082v.085c29.595-28.335 49.384-79.843 49.384-138.688 0-19.79-2.245-38.744-6.34-56.273-6.26-28.663-20.102-49.839-37.28-54.908a56.428 56.428 0 0 0-1.143-.011c-4.884 0-9.5.517-13.843 1.541-25.874 13.758-41.112 49.99-40.096 92.852Z"/><path fill="#667162" d="m1059.458 896.72-17.497-55.844-7.113 2.23 17.498 55.843a3.728 3.728 0 0 0 7.112-2.23z"/><path fill="#2a3c31" d="M1045.948 848.426c17.204-8.087 26.23-27.837 20.384-46.482-6.379-20.353-28.05-31.685-48.402-25.306-20.353 6.378-31.685 28.049-25.307 48.402 5.842 18.65 24.522 29.718 43.264 26.542l14.987 47.83a5.282 5.282 0 0 0 6.606 3.458 5.277 5.277 0 0 0 3.454-6.606l-14.986-47.83Zm-42.758-26.701c-4.547-14.52 3.531-29.973 18.05-34.524 14.52-4.548 29.974 3.53 34.525 18.05 4.547 14.52-3.531 29.973-18.05 34.524-14.52 4.548-29.974-3.53-34.525-18.05zm54.646 77.12c-.27.517-.727.896-1.28 1.07a2.182 2.182 0 0 1-2.73-1.43l-14.898-47.548c.699-.178 1.402-.375 2.098-.591.699-.22 1.387-.456 2.063-.711l14.897 47.548c.174.557.12 1.148-.146 1.662z"/><path fill="#667162" d="M1062.638 803.099c-5.73-18.286-25.268-28.497-43.55-22.772-18.286 5.73-28.497 25.264-22.771 43.55 2.774 8.859 8.832 16.103 17.057 20.403 5.042 2.635 10.528 3.972 16.06 3.972 3.493 0 7.005-.533 10.432-1.607 8.86-2.774 16.103-8.832 20.403-17.058 4.3-8.225 5.143-17.633 2.365-26.492zm-5.788 24.703c-3.82 7.31-10.261 12.696-18.135 15.16-7.874 2.466-16.235 1.72-23.544-2.101-7.31-3.821-12.696-10.262-15.16-18.135-5.093-16.25 3.986-33.617 20.236-38.709a30.998 30.998 0 0 1 9.273-1.43c4.918 0 9.794 1.187 14.275 3.532 7.31 3.82 12.696 10.261 15.16 18.135 2.466 7.874 1.72 16.235-2.101 23.544z"/><path fill="#80a73c" d="M1092.855 879.052c-17.386 10.265-35.162 7.402-35.162 7.402l-3.783-11.304c-1 1.074-2.275 2.024-3.79 2.31l-1.228 13.623c-8.094 3.724-6.618-4.258-6.618-4.258-9.242-.054-5.46-10.002-5.46-10.002s-7.132-3.856-3.017-9.895c4.11-6.039 11.436-2.29 11.436-2.29s5.138-8.307 13.105-3.343c5.652 3.94 6.854 12.162 6.854 12.162s9.207 4.841 22.014-5.652c12.143-9.952 14.473-16.532 14.473-16.532"/><path fill="#204822" d="M1165.346 833.872c4.52-2.121 8.75-5.336 11.556-9.605 1.07-1.58.463-2.496-.016-3.883-.301-1.228 1.283-1.568 2.233-1.549 2.056.027 4.161 1.132 5.262 2.786.414.645.827 1.483.564 2.229-.394.916-2.148.301-3.307 1.232-.58.46-.962 1.032-1.433 1.747a33.772 33.772 0 0 1-2.639 3.62c-3.33 3.968-7.495 6.946-12.533 8.697-7.974 2.727-21.2 3.716-27.11-3.443-1.113-1.603-.48-2.99 1.622-2.36 2.195.75 4.258 2.267 6.549 2.84 6.263 1.684 13.375.37 19.182-2.272l.07-.031zM1194.484 758.92c-1.541 1.65-3.879-.12-5.35-1.12-1.488-1.09-2.782-1.7-4.463-2.21-1.874-.6-3.825-.982-5.757-.723-1.035.085-2.264.243-3.23-.104-1.201-.36-1.336-1.979-.965-3.049 1.823-5.258 11.374-3.013 15.257-.792 2.252 1.403 6.24 5.606 4.547 7.951zM1136.184 823.765c-7.75-5.73-5.057-18.012 4.798-18.672 3.439.096 1.036 1.908-.47 2.959-6.395 4.238-5.982 11.224 1.417 14.133 1.545.626 3.265.942 4.86 1.375.858.263 2.083.557 2.45 1.198.286.954-1.67 1.306-2.426 1.468-3.62.54-7.627-.294-10.56-2.407l-.065-.05zM1119.397 758.78c-1.12-.695-.958-2.63-.467-3.735.59-1.523 1.591-2.539 3.048-3.408 1.364-.842 2.778-1.704 4.342-2.032 2.856-.572 7.917-.456 9.52 2.125.746 1.128.48 3.346-.935 3.852-1.182.475-2.91.046-4.315 0-1.731-.07-3.536.363-5.185.884-1.673.506-3.141 1.743-4.76 2.295-.398.128-.838.197-1.205.039l-.05-.023z"/><path fill="#fff" d="M1182.094 806.46c6.482 0 11.737-7.59 11.737-16.953s-5.255-16.953-11.737-16.953-11.737 7.59-11.737 16.953 5.255 16.953 11.737 16.953z"/><path fill="#234924" d="M1184.942 801.422c3.62 0 6.556-4.658 6.556-10.404 0-5.746-2.936-10.405-6.556-10.405-3.622 0-6.557 4.659-6.557 10.405 0 5.746 2.935 10.404 6.557 10.404z"/><path fill="#fff" d="M1187.426 788.178a2.04 2.04 0 1 0 0-4.08 2.04 2.04 0 0 0 0 4.08z"/><path fill="#234924" d="M1170.353 789.507c0-9.361 5.254-16.953 11.737-16.953 6.483 0 11.738 7.588 11.738 16.953 0 .274-.004.545-.016.815.356-1.476.549-3.048.549-4.675 0-8.712-5.494-15.774-12.275-15.774-6.78 0-12.274 7.062-12.274 15.774 0 1.627.193 3.2.549 4.675-.008-.27-.016-.54-.016-.815z"/><path fill="#fff" d="M1130.874 804.458c6.202-.66 10.457-8.454 9.505-17.41-.952-8.957-6.752-15.682-12.954-15.023-6.202.66-10.458 8.455-9.505 17.41.952 8.957 6.752 15.683 12.954 15.023z"/><path fill="#234924" d="M1133.092 799.353c3.462-.368 5.796-5.123 5.211-10.621s-3.866-9.656-7.329-9.288c-3.462.368-5.796 5.124-5.21 10.621.584 5.498 3.865 9.656 7.328 9.288z"/><path fill="#fff" d="M1133.905 786.455a1.962 1.962 0 1 0 0-3.925 1.962 1.962 0 0 0 0 3.925z"/><path fill="#234924" d="M1117.913 789.45c-.95-8.956 3.304-16.753 9.509-17.414 6.2-.66 12.003 6.066 12.954 15.026.027.262.05.521.07.784.189-1.449.216-2.971.05-4.528-.885-8.334-6.862-14.535-13.345-13.843-6.483.688-11.023 8.005-10.138 16.339.166 1.557.51 3.04 1 4.416-.034-.26-.069-.518-.096-.78z"/><path fill="#4f7338" d="M1193.974 737.628a1.936 1.936 0 1 0 0-3.871 1.936 1.936 0 0 0 0 3.87zM1197.842 705.885a1.936 1.936 0 1 0 0-3.871 1.936 1.936 0 0 0 0 3.871zM1167.78 727.39a1.936 1.936 0 1 0 0-3.872 1.936 1.936 0 0 0 0 3.872zM1159.987 709.177a1.936 1.936 0 1 0 0-3.871 1.936 1.936 0 0 0 0 3.87zM1183.395 717.896c1.431-.133 2.39-2.41 2.141-5.084-.249-2.675-1.612-4.735-3.044-4.602-1.431.133-2.39 2.41-2.141 5.084.249 2.675 1.611 4.735 3.044 4.602zM1215.333 731.768c1.302-.612 1.428-3.08.284-5.51-1.145-2.43-3.127-3.903-4.429-3.29-1.3.612-1.427 3.079-.283 5.51 1.145 2.43 3.128 3.903 4.428 3.29zM1144.188 721.906c1.063-2.466.855-4.927-.465-5.497-1.32-.57-3.254.968-4.318 3.435-1.064 2.467-.855 4.928.465 5.498 1.32.57 3.254-.969 4.318-3.436zM1118.795 833.661c.526-1.577-.155-3.224-1.52-3.678-1.364-.454-2.896.456-3.421 2.033-.525 1.578.156 3.224 1.52 3.678 1.365.455 2.896-.456 3.421-2.033zM1121.58 861.313c.525-1.578.141-3.125-.857-3.458-.998-.332-2.232.677-2.757 2.254-.525 1.578-.142 3.126.857 3.458.997.332 2.232-.677 2.757-2.254zM1201.404 843.222c0 2.766-1.109 5.01-2.477 5.01-1.367 0-2.476-2.244-2.476-5.01 0-2.767 1.109-5.011 2.476-5.011 1.368 0 2.477 2.244 2.477 5.01zM1219.091 820.48c0 2.767-1.109 5.012-2.476 5.012-1.368 0-2.477-2.245-2.477-5.011s1.109-5.011 2.477-5.011c1.367 0 2.476 2.245 2.476 5.01zM1229.113 799.923c0 1.774-1.109 3.21-2.476 3.21-1.368 0-2.477-1.436-2.477-3.21 0-1.773 1.109-3.21 2.477-3.21 1.367 0 2.476 1.437 2.476 3.21zM1223.013 756.37c0 1.773-1.11 3.21-2.477 3.21-1.368 0-2.476-1.437-2.476-3.21 0-1.774 1.108-3.21 2.476-3.21 1.368 0 2.477 1.436 2.477 3.21zM1222.434 782.76c1.336-.294 2.03-2.302 1.55-4.486-.48-2.184-1.953-3.717-3.289-3.423-1.336.294-2.03 2.303-1.549 4.486.48 2.184 1.952 3.717 3.288 3.423zM1216.615 874.052c1.32 0 2.391-1.532 2.391-3.423 0-1.89-1.07-3.423-2.391-3.423s-2.392 1.533-2.392 3.423c0 1.89 1.07 3.423 2.392 3.423zM1186.801 866.986c.713-2.673.22-5.127-1.102-5.48-1.322-.352-2.97 1.53-3.684 4.204-.713 2.674-.22 5.128 1.102 5.48 1.322.353 2.97-1.53 3.684-4.204zM1204.117 911.924c1.293-2.76 1.279-5.498-.033-6.112-1.312-.615-3.425 1.125-4.718 3.886-1.294 2.76-1.28 5.497.032 6.112 1.312.615 3.424-1.125 4.719-3.886zM1142.11 872.758c.607-2.274.18-4.362-.951-4.664-1.132-.302-2.541 1.297-3.148 3.571-.606 2.274-.18 4.362.952 4.664 1.132.302 2.541-1.297 3.148-3.57zM1112.27 887.81c.976-3.661.556-6.953-.94-7.351-1.494-.399-3.497 2.247-4.473 5.908-.977 3.662-.557 6.953.938 7.352 1.495.398 3.498-2.247 4.475-5.909zM1145.722 911.772c.625-2.347.228-4.49-.887-4.787-1.116-.298-2.527 1.363-3.152 3.71-.626 2.346-.23 4.489.886 4.786 1.116.297 2.527-1.364 3.153-3.71zM1116.245 933.51c1.124-.263 1.587-2.393 1.033-4.758-.553-2.364-1.913-4.067-3.036-3.804-1.124.263-1.587 2.393-1.034 4.757.553 2.364 1.913 4.068 3.037 3.805zM1148.249 939.89c1.947-1.879 2.689-4.27 1.656-5.34-1.032-1.07-3.448-.415-5.395 1.463-1.947 1.879-2.689 4.269-1.656 5.34 1.032 1.07 3.448.415 5.395-1.464zM1130.219 737.628a1.936 1.936 0 1 0 0-3.871 1.936 1.936 0 0 0 0 3.87zM1192.039 886.686a1.936 1.936 0 1 0 0-3.871 1.936 1.936 0 0 0 0 3.871zM1177.245 895.853c.437-1.54-.043-3.024-1.071-3.316-1.029-.291-2.216.72-2.653 2.26-.437 1.54.043 3.024 1.072 3.316 1.028.292 2.216-.72 2.652-2.26zM1187.826 932.332c.487-1.716.001-3.357-1.085-3.665-1.086-.308-2.36.834-2.847 2.55-.487 1.716-.001 3.357 1.085 3.665 1.086.308 2.361-.834 2.847-2.55zM1161.745 953.257c1.144-.793 1.55-2.187.907-3.115-.642-.928-2.09-1.038-3.234-.245-1.144.792-1.55 2.186-.907 3.114.642.928 2.09 1.038 3.234.246zM1165.871 927.38a1.936 1.936 0 1 0 0-3.87 1.936 1.936 0 0 0 0 3.87zM1102.788 915.102a1.936 1.936 0 1 0 0-3.87 1.936 1.936 0 0 0 0 3.87z"/><path fill="#80a73c" d="M1201.844 985.059c-9.508-17.15-10.408-46.316-10.408-46.316l-10.88 4.003c1.43 29.834 9.783 38.268 10.096 38.577-7.963-8.013-17.336 1.294-17.336 1.294s-9.508 8.542-3.47 11.162c6.04 2.62 39.83 3.933 31.99-8.72z"/><path fill="#667162" d="M1001.923 733.336a3.43 3.43 0 1 0 0-6.862 3.43 3.43 0 0 0 0 6.862zM1008.043 765.835a8.673 8.673 0 1 0 0-17.347 8.673 8.673 0 1 0 0 17.347zM1047.984 751.285a9.272 9.272 0 0 0 9.272-9.272 9.272 9.272 0 0 0-9.272-9.272 9.272 9.272 0 0 0-9.273 9.272 9.272 9.272 0 0 0 9.273 9.272zM1067.634 771.117a6.12 6.12 0 1 0 0-12.24 6.12 6.12 0 0 0 0 12.24zM1021.569 728.657a1.267 1.267 0 1 0 0-2.535 1.267 1.267 0 0 0 0 2.535zM1045.63 720.868a1.267 1.267 0 1 0 .001-2.534 1.267 1.267 0 0 0 0 2.534zM1011.103 742.013a1.267 1.267 0 1 0 0-2.534 1.267 1.267 0 0 0 0 2.534zM1000.636 747.163a1.267 1.267 0 1 0 0-2.534 1.267 1.267 0 0 0 0 2.534zM986.164 743.361a1.638 1.638 0 1 0 0-3.276 1.638 1.638 0 0 0 0 3.276zM1002.82 770.433a1.638 1.638 0 1 0 0-3.276 1.638 1.638 0 0 0 0 3.276zM1018.354 750.122a1.638 1.638 0 1 0 0-3.275 1.638 1.638 0 0 0 0 3.275zM979.986 789.101a1.638 1.638 0 1 0 0-3.275 1.638 1.638 0 0 0 0 3.275zM994.065 783.376a1.638 1.638 0 1 0 0-3.276 1.638 1.638 0 0 0 0 3.276zM1024.66 744.78a1.638 1.638 0 1 0 0-3.277 1.638 1.638 0 0 0 0 3.276zM1015.689 770.433a1.638 1.638 0 1 0 0-3.276 1.638 1.638 0 0 0 0 3.276zM983.262 754.388a2.53 2.53 0 1 0 0-5.062 2.53 2.53 0 0 0 0 5.062zM1034.55 732.435a2.53 2.53 0 1 0 0-5.061 2.53 2.53 0 0 0 0 5.061zM1060.254 730.515a2.53 2.53 0 1 0 0-5.061 2.53 2.53 0 0 0 0 5.061zM1081.496 770.9a2.53 2.53 0 1 0 0-5.06 2.53 2.53 0 0 0 0 5.06zM1079.73 806.483a2.53 2.53 0 1 0 0-5.06 2.53 2.53 0 0 0 0 5.06zM1045.024 811.487a2.53 2.53 0 1 0 0-5.061 2.53 2.53 0 0 0 0 5.06zM1021.569 800.155a2.53 2.53 0 1 0 0-5.062 2.53 2.53 0 0 0 0 5.062zM1022.288 816.212a4.725 4.725 0 1 0 0-9.45 4.725 4.725 0 0 0 0 9.45zM1037.935 824.093a6.429 6.429 0 1 0 0-12.857 6.429 6.429 0 0 0 0 12.857zM989.112 773.192a3.319 3.319 0 1 0 0-6.638 3.319 3.319 0 0 0 0 6.638zM1072.026 739.262a1.638 1.638 0 1 0 0-3.276 1.638 1.638 0 0 0 0 3.276zM1035.242 755.323a2.272 2.272 0 1 0 0-4.544 2.272 2.272 0 0 0 0 4.544zM1073.88 778.79a1.638 1.638 0 1 0 0-3.277 1.638 1.638 0 0 0 0 3.277zM1077.2 824.885a1.638 1.638 0 1 0 0-3.276 1.638 1.638 0 0 0 0 3.276zM1036.297 799.76a1.638 1.638 0 1 0 0-3.275 1.638 1.638 0 0 0 0 3.276zM1047.984 823.753a1.638 1.638 0 1 0 0-3.276 1.638 1.638 0 0 0 0 3.276zM1037.935 831.704a1.638 1.638 0 1 0 0-3.276 1.638 1.638 0 0 0 0 3.276zM993.698 758.429a1.267 1.267 0 1 0 0-2.534 1.267 1.267 0 0 0 0 2.534zM1032.707 768.37a1.267 1.267 0 1 0 0-2.535 1.267 1.267 0 0 0 0 2.535zM1055.985 755.895a1.267 1.267 0 1 0 0-2.535 1.267 1.267 0 0 0 0 2.535zM1062.785 744.629a1.267 1.267 0 1 0 0-2.535 1.267 1.267 0 0 0 0 2.535zM1075.148 757.637a1.267 1.267 0 1 0 0-2.535 1.267 1.267 0 0 0 0 2.535zM1073.88 791.497a1.267 1.267 0 1 0 0-2.535 1.267 1.267 0 0 0 0 2.535zM1014.375 823.382a1.267 1.267 0 1 0 0-2.534 1.267 1.267 0 0 0 0 2.534zM1025.927 831.975a1.267 1.267 0 1 0 0-2.534 1.267 1.267 0 0 0 0 2.534zM1028.898 805.22a1.267 1.267 0 1 0 0-2.534 1.267 1.267 0 0 0 0 2.534zM1011.84 810.223a1.267 1.267 0 1 0 .001-2.534 1.267 1.267 0 0 0 0 2.534zM1027.63 823.015a1.267 1.267 0 1 0 0-2.534 1.267 1.267 0 0 0 0 2.534zM1061.514 775.092a1.267 1.267 0 1 0 0-2.534 1.267 1.267 0 0 0 0 2.534zM1055.41 767.103a1.267 1.267 0 1 0 0-2.535 1.267 1.267 0 0 0 0 2.535zM1045.024 763.815a1.267 1.267 0 1 0 0-2.535 1.267 1.267 0 0 0 0 2.535zM1022.288 760.164a1.267 1.267 0 1 0 0-2.534 1.267 1.267 0 0 0 0 2.534zM984.53 801.422a1.267 1.267 0 1 0 0-2.534 1.267 1.267 0 0 0 0 2.534z"/><path fill="#2a3c31" d="M1284.315 773.38h-17.83v-8.352c0-2.7-1.654-5.023-4.003-6.008v-34.466a2.511 2.511 0 1 0-5.022 0v34.466a6.522 6.522 0 0 0-4.003 6.008v8.353h-14.77c.104 1.004.209 2.036.313 3.09h45.315c3.98 0 7.217 3.238 7.217 7.218v69.006c0 3.98-3.238 7.217-7.217 7.217h-26.488a36.624 36.624 0 0 1 2.75 3.09h23.738c5.683 0 10.308-4.624 10.308-10.307v-69.006c0-5.684-4.625-10.308-10.308-10.308zm-21.697 0h-5.301v-8.352c0-1.46 1.19-2.65 2.65-2.65s2.65 1.19 2.65 2.65z"/><path fill="#d0cfb9" d="M1240.77 807.183c.231 13.735-.333 26.894-1.654 39.307a146.68 146.68 0 0 1 8.221 5.085c.267.173.526.351.785.525v-67.5c0-4.473 3.639-8.117 8.117-8.117h-17.235c.854 8.782 1.576 19.26 1.765 30.696z"/><path fill="#fff" d="M1256.262 776.483c-4.474 0-8.117 3.64-8.117 8.117v67.52a85.082 85.082 0 0 1 3.09 2.178V784.6a5.031 5.031 0 0 1 5.027-5.026h28.034v-3.09z"/><path fill="#80a73c" d="M1246.263 853.182c-5.146-3.435-10.37-6.383-15.253-8.933l-1.735 11.436s21.84 13.554 21.84 19.53c0 5.977-14.646 17.023-14.646 17.023s-9.701-7.194-19.016 2.697c-9.315 9.894.784 19.271.784 19.271s3.184 6.958 10.973 6.68c7.26-.255 8.542-6.174 7.707-8.353 7.809-2.434 5.742-11.583 5.742-11.583 7.584-5.888 16.675-11.378 19.997-19.982 4.381-12.093-7.267-21.767-16.393-27.786z"/><path fill="#234924" d="M1261.072 863.64c-2.99-3.995-7.487-7.943-13.735-12.065a146.68 146.68 0 0 0-8.221-5.085c1.321-12.413 1.885-25.572 1.653-39.307-.544-32.4-5.331-57.107-5.378-57.346-3.77-19.546-11.579-35.657-22.578-46.598-9.686-9.632-21.871-15.3-35.517-16.582.181-3.2 1.19-6.437 2.866-9.095a19.405 19.405 0 0 1 5.19-5.506l.034-.023c.433-.32.973-.66 1.545-1.02 2.257-1.418 5.347-3.365 5.517-6.719.201-3.226-2.295-6.25-5.679-6.888l-.046-.008c-2.152-.351-4.834.081-7.967 1.279-2.585.974-5 2.542-7.387 4.787-6.089 5.243-9.786 13.804-10.289 23.683-11.884 1.843-22.107 7.02-30.494 15.466-10.544 10.617-18.224 26.488-22.83 47.177l-.015.077c-.147.827-3.616 20.64-1.569 52.2 1.043 16.065-2.739 34.8-6.096 47.688l-.244.923c-.266.642-2.99 6.734-13.854 15.636-9.601 7.866-16.764 6.521-19.09 5.753-.568-2.558-2.426-8.856-7.445-12.352l-.081-.054c-2.747-1.712-5.521-2.256-8.245-1.623-3.095.723-5.324 2.832-6.522 4.246-3.43-1.178-8.951-1.491-12.39 3.562-1.46 2.145-1.932 4.327-1.406 6.491.618 2.535 2.457 4.316 3.76 5.305-.492 1.97-.951 5.432.85 8.063 1.065 1.557 2.692 2.523 4.844 2.89.066 1.445.475 3.288 1.966 4.447.831.645 1.836.97 3.014.97 1.29 0 2.786-.39 4.47-1.167a1.93 1.93 0 1 0-1.615-3.508c-2.009.923-3.137.934-3.493.656-.27-.208-.417-.753-.467-1.352 2.179-.309 3.968-1.213 5.328-2.7 2.059-2.253 2.527-5.274 2.604-7.063.313-.135.614-.294.904-.468l3.272 9.775 1.155.186c.267.042 2.647.41 6.402.41 6.085 0 15.771-.963 25.859-5.815-1.704 5.864-3.701 13.785-4.451 20.851-1.611 15.172 2.72 28.953 12.522 39.852 4.234 4.71 9.403 8.693 15.183 11.822-.942 6.456-.12 13.847 2.172 19.917-1.001-.305-2.094-.626-3.16-.885-1.527-.37-2.94-.58-4.305-.633-5.042-.248-11.42 1.889-15.867 5.3-1.785 1.353-5.958 4.903-6.093 8.67-.058 1.592.587 3.025 1.87 4.15l.158.123c4.026 2.851 11.181 3.59 17.502 3.59 1.283 0 2.535-.032 3.713-.082 7.55-.313 15.133-1.51 18.24-2.503a6.655 6.655 0 0 0 4.23-2.732c1.152-1.642 1.588-3.805 1.202-5.934l-.027-.132c-.433-1.7-.97-3.16-1.488-4.57-.614-1.68-1.252-3.42-1.734-5.618l-.016-.07c-.931-3.612-1.68-8.912-1.63-12.826a67.974 67.974 0 0 0 16.895 2.14c12.614 0 24.417-2.639 35.216-7.854 1.375 9.929 3.57 16.536 5.51 20.747-2.207-.371-4.556-.081-6.994.885-3.465 1.375-5.942 3.697-6.294 4.04-1.201 1.086-6.726 6.34-6.023 10.652.186 1.152.877 2.724 3.107 3.69 2.584 1.12 8.84 1.89 15.036 1.89.576 0 1.156-.008 1.727-.02 6.209-.147 14.3-1.124 17.59-4.93 1.145-1.325 2.674-4.176.074-8.41-3.763-6.804-6.707-16.78-8.519-28.853a170.133 170.133 0 0 1-1.047-8.473c9.617-7.41 17.807-17.085 24.452-28.849 1.874 2.225 5.2 4.918 10.35 4.914.175 0 .352 0 .53-.007 4.714-.166 7.14-2.369 8.345-4.188 1.082-1.635 1.484-3.396 1.445-4.868 1.244-.6 2.31-1.399 3.184-2.407 2.758-3.188 2.716-7.465 2.484-9.566 1-.761 2.028-1.526 3.033-2.272 6.75-5.011 13.727-10.188 16.686-17.853l.016-.04c2.179-6.01 1.031-12.061-3.4-17.984zm-87.15-197.279.07-.061c2.017-1.905 4.022-3.215 6.14-4.015 2.441-.935 4.497-1.31 5.945-1.081 1.264.247 2.6 1.476 2.516 2.87-.07 1.372-2.01 2.589-3.717 3.667-.626.394-1.221.769-1.766 1.167-1.414 1-4.087 3.175-6.22 6.602-2.01 3.188-3.222 7.07-3.446 10.907a67.91 67.91 0 0 0-2.18-.039c-2.14 0-4.23.097-6.281.286.575-8.55 3.77-15.867 8.94-20.303zm-139.38 205.037c-.254-1.066.024-2.171.85-3.388 2.098-3.083 5.375-2.793 7.334-2.256-.337 1.008-.704 2.322-.89 3.728-.258 1.932-.123 3.647.38 5.092a1.93 1.93 0 0 0-2.929-.514c-.417.356-1.317.618-2.044.75-.908-.626-2.341-1.89-2.704-3.412zm12.047 11.938c-.962 1.044-2.349 1.554-4.234 1.554h-.066c-1.831-.012-3.072-.476-3.694-1.376-.9-1.306-.625-3.539-.282-4.972 1.044-.217 2.442-.657 3.478-1.538.58-.494.788-1.255.614-1.947.688 1.623 1.878 2.87 3.543 3.655.722.34 1.46.564 2.198.676-.127 1.202-.502 2.801-1.56 3.948zm12.549 1.341-3.045-9.098a17.046 17.046 0 0 0 2.133-3.497 1.93 1.93 0 0 0-1-2.538 1.934 1.934 0 0 0-2.543.993c-.471 1.074-2.179 4.045-4.358 4.86-.889.332-1.758.274-2.724-.182-3.913-1.846-1.066-8.735-.66-9.662.664-1.013 4.505-6.251 10.338-2.65 4.845 3.41 5.997 10.755 6.004 10.829l.143.973.87.456c.42.22 10.497 5.309 24.135-5.868 3.477-2.848 6.182-5.444 8.272-7.708-2.365 7.638-4.25 12.556-4.277 12.626l-.02.05c-.065.182-.513 1.46-1.166 3.485-13.893 7.932-28.061 7.31-32.102 6.927zm69.636 100.544c.185 1.097-.023 2.172-.572 2.956a2.782 2.782 0 0 1-1.858 1.167l-.147.023-.143.046c-5.819 1.932-28.946 4.49-36.054-.386-.445-.417-.495-.761-.487-1.043.05-1.399 1.885-3.702 4.574-5.734 3.725-2.859 9.21-4.721 13.352-4.516 1.12.046 2.288.216 3.563.529 1.143.278 2.372.65 3.454.981.985.302 1.835.56 2.403.68 1.197.282 2.117.05 2.731-.687.27-.325.835-1.225.244-2.573l-.04-.085c-2.68-5.382-3.89-12.831-3.225-19.268a65.449 65.449 0 0 0 7.271 2.828c-.22 4.486.65 10.737 1.708 14.867.537 2.438 1.217 4.292 1.874 6.085.498 1.364.97 2.65 1.352 4.13zm132.074-104.933c-2.561 6.61-9.075 11.444-15.377 16.123a245.377 245.377 0 0 0-3.995 3.01l-.962.753.26 1.19c.01.046.984 4.667-1.453 7.468-1.588 1.823-4.401 2.592-8.353 2.283a1.93 1.93 0 1 0-.297 3.852c.66.05 1.301.077 1.92.077.88 0 1.71-.054 2.503-.158a4.873 4.873 0 0 1-.684 1.6c-1.008 1.526-2.828 2.375-5.262 2.46-6.348.225-9.04-5.327-9.149-5.555l-.162-.348-.074-.07c-.2-.432-.726-2.16 1.569-5.192.645-.85.48-2.063-.375-2.705a1.926 1.926 0 0 0-2.704.375c-.796 1.047-1.356 2.029-1.75 2.937a12.27 12.27 0 0 1-.383-.916c-1.46-3.96-.537-7.739 2.743-11.224 7.982-8.476 16.123-2.716 16.459-2.472l1.159.861 1.155-.869c2.573-1.943 15.415-11.961 15.415-18.564 0-2.017-1.213-5.61-11.687-13.546-5.47-4.141-10.84-7.483-11.069-7.626a1.926 1.926 0 0 0-2.658.622 1.93 1.93 0 0 0 .622 2.658c.035.02 2.16 1.344 5.05 3.319-1.6 9.655-3.732 18.738-6.367 27.21-3.477.344-7.29 1.932-10.891 5.757-3.091 3.284-4.594 6.88-4.463 10.702.159 4.698 2.778 8.419 4.289 10.188-6.116 11.231-13.635 20.511-22.312 27.663-.15-2.16-.193-3.45-.193-3.477a1.927 1.927 0 0 0-1.99-1.87 1.928 1.928 0 0 0-1.87 1.99c.012.324.089 2.65.39 6.208l.43 4.385c1.127 10.208 3.758 25.642 9.832 36.6l.046.08c1.534 2.48.68 3.47.317 3.89-1.793 2.076-7.31 3.416-14.759 3.594-6.765.162-13.128-.68-15.137-1.553-.757-.329-.807-.638-.83-.769-.263-1.615 2.63-5.212 4.821-7.186l.066-.062c.328-.32 9.504-9.11 15.987-2.658-.22-.232-.823-3.752-2.878-9.021-1.476-3.779-3.238-9.79-4.362-18.661l-.456-4.138c-.201-2.14-.367-4.424-.483-6.862a1.923 1.923 0 0 0-2.02-1.835 1.926 1.926 0 0 0-1.836 2.02c.15 3.107.375 5.99.657 8.659-10.505 5.281-22.184 8.028-34.725 8.028-17.143 0-33.582-6.896-43.975-18.452-9.048-10.06-13.043-22.806-11.552-36.858 1.306-12.317 6.761-27.956 7-28.636.797-2.067 16.035-42.236 13.99-73.766-1.974-30.433 1.345-50.268 1.511-51.234 8.929-40.038 29.023-60.337 59.723-60.337 15.048 0 28.474 5.444 38.824 15.736 10.447 10.39 17.888 25.809 21.512 44.597.046.243 4.78 24.672 5.309 56.743.212 12.943-.286 25.36-1.469 37.106a206.242 206.242 0 0 0-3.535-1.89 1.932 1.932 0 1 0-1.789 3.427c5.726 2.99 10.656 5.877 15.084 8.832 13.506 8.91 18.626 17.25 15.647 25.496zm-21.798-15.527c9.852 7.464 10.134 10.165 10.134 10.45 0 3.246-7.167 10.223-12.815 14.663a16.26 16.26 0 0 0-5.428-1.894c2.38-7.808 4.338-16.11 5.864-24.877.738.537 1.492 1.09 2.245 1.662z"/><path fill="#234924" d="M1261.072 863.64c-2.99-3.995-7.487-7.943-13.735-12.065a146.68 146.68 0 0 0-8.221-5.085c1.321-12.413 1.885-25.572 1.653-39.307-.544-32.4-5.331-57.107-5.378-57.346-3.77-19.546-11.579-35.657-22.578-46.598-9.686-9.632-21.871-15.3-35.517-16.582.181-3.2 1.19-6.437 2.866-9.095a19.405 19.405 0 0 1 5.19-5.506l.034-.023c.433-.32.973-.66 1.545-1.02 2.257-1.418 5.347-3.365 5.517-6.719.201-3.226-2.295-6.25-5.679-6.888l-.046-.008c-2.152-.351-4.834.081-7.967 1.279-2.585.974-5 2.542-7.387 4.787-6.089 5.243-9.786 13.804-10.289 23.683-11.884 1.843-22.107 7.02-30.494 15.466-10.544 10.617-18.224 26.488-22.83 47.177l-.015.077c-.147.827-3.616 20.64-1.569 52.2 1.043 16.065-2.739 34.8-6.096 47.688l-.244.923c-.266.642-2.99 6.734-13.854 15.636-9.601 7.866-16.764 6.521-19.09 5.753-.568-2.558-2.426-8.856-7.445-12.352l-.081-.054c-2.747-1.712-5.521-2.256-8.245-1.623-3.095.723-5.324 2.832-6.522 4.246-3.43-1.178-8.951-1.491-12.39 3.562-1.46 2.145-1.932 4.327-1.406 6.491.618 2.535 2.457 4.316 3.76 5.305-.492 1.97-.951 5.432.85 8.063 1.065 1.557 2.692 2.523 4.844 2.89.066 1.445.475 3.288 1.966 4.447.831.645 1.836.97 3.014.97 1.29 0 2.786-.39 4.47-1.167a1.93 1.93 0 1 0-1.615-3.508c-2.009.923-3.137.934-3.493.656-.27-.208-.417-.753-.467-1.352 2.179-.309 3.968-1.213 5.328-2.7 2.059-2.253 2.527-5.274 2.604-7.063.313-.135.614-.294.904-.468l3.272 9.775 1.155.186c.267.042 2.647.41 6.402.41 6.085 0 15.771-.963 25.859-5.815-1.704 5.864-3.701 13.785-4.451 20.851-1.611 15.172 2.72 28.953 12.522 39.852 4.234 4.71 9.403 8.693 15.183 11.822-.942 6.456-.12 13.847 2.172 19.917-1.001-.305-2.094-.626-3.16-.885-1.527-.37-2.94-.58-4.305-.633-5.042-.248-11.42 1.889-15.867 5.3-1.785 1.353-5.958 4.903-6.093 8.67-.058 1.592.587 3.025 1.87 4.15l.158.123c4.026 2.851 11.181 3.59 17.502 3.59 1.283 0 2.535-.032 3.713-.082 7.55-.313 15.133-1.51 18.24-2.503a6.655 6.655 0 0 0 4.23-2.732c1.152-1.642 1.588-3.805 1.202-5.934l-.027-.132c-.433-1.7-.97-3.16-1.488-4.57-.614-1.68-1.252-3.42-1.734-5.618l-.016-.07c-.931-3.612-1.68-8.912-1.63-12.826a67.974 67.974 0 0 0 16.895 2.14c12.614 0 24.417-2.639 35.216-7.854 1.375 9.929 3.57 16.536 5.51 20.747-2.207-.371-4.556-.081-6.994.885-3.465 1.375-5.942 3.697-6.294 4.04-1.201 1.086-6.726 6.34-6.023 10.652.186 1.152.877 2.724 3.107 3.69 2.584 1.12 8.84 1.89 15.036 1.89.576 0 1.156-.008 1.727-.02 6.209-.147 14.3-1.124 17.59-4.93 1.145-1.325 2.674-4.176.074-8.41-3.763-6.804-6.707-16.78-8.519-28.853a170.133 170.133 0 0 1-1.047-8.473c9.617-7.41 17.807-17.085 24.452-28.849 1.874 2.225 5.2 4.918 10.35 4.914.175 0 .352 0 .53-.007 4.714-.166 7.14-2.369 8.345-4.188 1.082-1.635 1.484-3.396 1.445-4.868 1.244-.6 2.31-1.399 3.184-2.407 2.758-3.188 2.716-7.465 2.484-9.566 1-.761 2.028-1.526 3.033-2.272 6.75-5.011 13.727-10.188 16.686-17.853l.016-.04c2.179-6.01 1.031-12.061-3.4-17.984zm-87.15-197.279.07-.061c2.017-1.905 4.022-3.215 6.14-4.015 2.441-.935 4.497-1.31 5.945-1.081 1.264.247 2.6 1.476 2.516 2.87-.07 1.372-2.01 2.589-3.717 3.667-.626.394-1.221.769-1.766 1.167-1.414 1-4.087 3.175-6.22 6.602-2.01 3.188-3.222 7.07-3.446 10.907a67.91 67.91 0 0 0-2.18-.039c-2.14 0-4.23.097-6.281.286.575-8.55 3.77-15.867 8.94-20.303zm-139.38 205.037c-.254-1.066.024-2.171.85-3.388 2.098-3.083 5.375-2.793 7.334-2.256-.337 1.008-.704 2.322-.89 3.728-.258 1.932-.123 3.647.38 5.092a1.93 1.93 0 0 0-2.929-.514c-.417.356-1.317.618-2.044.75-.908-.626-2.341-1.89-2.704-3.412zm12.047 11.938c-.962 1.044-2.349 1.554-4.234 1.554h-.066c-1.831-.012-3.072-.476-3.694-1.376-.9-1.306-.625-3.539-.282-4.972 1.044-.217 2.442-.657 3.478-1.538.58-.494.788-1.255.614-1.947.688 1.623 1.878 2.87 3.543 3.655.722.34 1.46.564 2.198.676-.127 1.202-.502 2.801-1.56 3.948zm12.549 1.341-3.045-9.098a17.046 17.046 0 0 0 2.133-3.497 1.93 1.93 0 0 0-1-2.538 1.934 1.934 0 0 0-2.543.993c-.471 1.074-2.179 4.045-4.358 4.86-.889.332-1.758.274-2.724-.182-3.913-1.846-1.066-8.735-.66-9.662.664-1.013 4.505-6.251 10.338-2.65 4.845 3.41 5.997 10.755 6.004 10.829l.143.973.87.456c.42.22 10.497 5.309 24.135-5.868 3.477-2.848 6.182-5.444 8.272-7.708-2.365 7.638-4.25 12.556-4.277 12.626l-.02.05c-.065.182-.513 1.46-1.166 3.485-13.893 7.932-28.061 7.31-32.102 6.927zm69.636 100.544c.185 1.097-.023 2.172-.572 2.956a2.782 2.782 0 0 1-1.858 1.167l-.147.023-.143.046c-5.819 1.932-28.946 4.49-36.054-.386-.445-.417-.495-.761-.487-1.043.05-1.399 1.885-3.702 4.574-5.734 3.725-2.859 9.21-4.721 13.352-4.516 1.12.046 2.288.216 3.563.529 1.143.278 2.372.65 3.454.981.985.302 1.835.56 2.403.68 1.197.282 2.117.05 2.731-.687.27-.325.835-1.225.244-2.573l-.04-.085c-2.68-5.382-3.89-12.831-3.225-19.268a65.449 65.449 0 0 0 7.271 2.828c-.22 4.486.65 10.737 1.708 14.867.537 2.438 1.217 4.292 1.874 6.085.498 1.364.97 2.65 1.352 4.13zm132.074-104.933c-2.561 6.61-9.075 11.444-15.377 16.123a245.377 245.377 0 0 0-3.995 3.01l-.962.753.26 1.19c.01.046.984 4.667-1.453 7.468-1.588 1.823-4.401 2.592-8.353 2.283a1.93 1.93 0 1 0-.297 3.852c.66.05 1.301.077 1.92.077.88 0 1.71-.054 2.503-.158a4.873 4.873 0 0 1-.684 1.6c-1.008 1.526-2.828 2.375-5.262 2.46-6.348.225-9.04-5.327-9.149-5.555l-.162-.348-.074-.07c-.2-.432-.726-2.16 1.569-5.192.645-.85.48-2.063-.375-2.705a1.926 1.926 0 0 0-2.704.375c-.796 1.047-1.356 2.029-1.75 2.937a12.27 12.27 0 0 1-.383-.916c-1.46-3.96-.537-7.739 2.743-11.224 7.982-8.476 16.123-2.716 16.459-2.472l1.159.861 1.155-.869c2.573-1.943 15.415-11.961 15.415-18.564 0-2.017-1.213-5.61-11.687-13.546-5.47-4.141-10.84-7.483-11.069-7.626a1.926 1.926 0 0 0-2.658.622 1.93 1.93 0 0 0 .622 2.658c.054.035 5.467 3.4 10.795 7.437 9.852 7.464 10.134 10.165 10.134 10.45 0 3.246-7.167 10.224-12.815 14.663-4.382-2.504-12.82-4.234-20.322 3.736-3.091 3.284-4.594 6.88-4.463 10.702.159 4.698 2.778 8.419 4.289 10.188-6.116 11.231-13.635 20.511-22.312 27.663-.15-2.16-.193-3.45-.193-3.477a1.927 1.927 0 0 0-1.99-1.87 1.928 1.928 0 0 0-1.87 1.99c.012.324.089 2.65.39 6.208l.43 4.385c1.127 10.208 3.758 25.642 9.832 36.6l.046.08c1.534 2.48.68 3.47.317 3.89-1.793 2.076-7.31 3.416-14.759 3.594-6.765.162-13.128-.68-15.137-1.553-.757-.329-.807-.638-.83-.769-.263-1.615 2.63-5.212 4.821-7.186l.066-.062c.328-.32 9.504-9.11 15.987-2.658-.22-.232-.823-3.752-2.878-9.021-1.476-3.779-3.238-9.79-4.362-18.661l-.456-4.138c-.201-2.14-.367-4.424-.483-6.862a1.923 1.923 0 0 0-2.02-1.835 1.926 1.926 0 0 0-1.836 2.02c.15 3.107.375 5.99.657 8.659-10.505 5.281-22.184 8.028-34.725 8.028-17.143 0-33.582-6.896-43.975-18.452-9.048-10.06-13.043-22.806-11.552-36.858 1.306-12.317 6.761-27.956 7-28.636.797-2.067 16.035-42.236 13.99-73.766-1.974-30.433 1.345-50.268 1.511-51.234 8.929-40.038 29.023-60.337 59.723-60.337 15.048 0 28.474 5.444 38.824 15.736 10.447 10.39 17.888 25.809 21.512 44.597.046.243 4.78 24.672 5.309 56.743.212 12.943-.286 25.36-1.469 37.106a206.242 206.242 0 0 0-3.535-1.89 1.932 1.932 0 1 0-1.789 3.427c5.726 2.99 10.656 5.877 15.084 8.832 13.506 8.91 18.626 17.25 15.647 25.496z"/><text xml:space="preserve" x="685.384" y="741.517" style="font-weight:700;font-size:53.3333px;line-height:1.2;font-family:Poppins;-inkscape-font-specification:&quot;Poppins Bold&quot;;text-align:center;text-anchor:middle;opacity:.727941;fill:#667162;fill-opacity:1;fill-rule:evenodd;stroke-width:1.13386;stroke-linecap:round;stroke-linejoin:bevel;paint-order:markers stroke fill"><tspan x="685.384" y="741.517" style="font-style:normal;font-variant:normal;font-weight:700;font-stretch:normal;font-family:Poppins;-inkscape-font-specification:&quot;Poppins Bold&quot;;baseline-shift:baseline;fill:#667162;fill-opacity:1">FEINSTAUB</tspan></text><text xml:space="preserve" x="770.228" y="782.279" style="font-weight:700;font-size:53.3333px;line-height:1.2;font-family:Poppins;-inkscape-font-specification:&quot;Poppins Bold&quot;;text-align:center;word-spacing:0;text-anchor:middle;opacity:.727941;fill:#508333;fill-opacity:1;fill-rule:evenodd;stroke-width:1.13386;stroke-linecap:round;stroke-linejoin:bevel;paint-order:markers stroke fill"><tspan x="770.228" y="782.279" dx="0" style="font-style:normal;font-variant:normal;font-weight:800;font-stretch:normal;font-family:Poppins;-inkscape-font-specification:&quot;Poppins Ultra-Bold&quot;;baseline-shift:baseline;fill:#508333;fill-opacity:1">GURKE</tspan></text></g><defs><clipPath id="a"><path fill="#fff" d="M0 0h1536v1024H0z"/></clipPath></defs></svg>